<?xml version="1.0" encoding="UTF-8" standalone="no"?>
<!DOCTYPE svg PUBLIC "-//W3C//DTD SVG 1.1//EN"
 "http://www.w3.org/Graphics/SVG/1.1/DTD/svg11.dtd">
<!-- Generated by graphviz version 14.1.5 (20260411.2331)
 -->
<!-- Title: hierarchy_Method Pages: 1 -->
<svg width="983pt" height="302pt"
 viewBox="0.00 0.00 983.00 302.00" xmlns="http://www.w3.org/2000/svg" xmlns:xlink="http://www.w3.org/1999/xlink">
<g id="graph0" class="graph" transform="scale(1 1) rotate(0) translate(4 298)">
<title>hierarchy_Method</title>
<polygon fill="white" stroke="none" points="-4,4 -4,-298 979.38,-298 979.38,4 -4,4"/>
<text xml:space="preserve" text-anchor="middle" x="487.69" y="-276.7" font-family="Helvetica,sans-Serif" font-size="14.00">Method hierarchy</text>
<!-- http___example_org_ontology_teamMeasurement_Method -->
<g id="node1" class="node">
<title>http___example_org_ontology_teamMeasurement_Method</title>
<path fill="#e8f8f7" stroke="#4ecdc4" d="M599.62,-40.75C599.62,-40.75 548.12,-40.75 548.12,-40.75 542.12,-40.75 536.12,-34.75 536.12,-28.75 536.12,-28.75 536.12,-12 536.12,-12 536.12,-6 542.12,0 548.12,0 548.12,0 599.62,0 599.62,0 605.62,0 611.62,-6 611.62,-12 611.62,-12 611.62,-28.75 611.62,-28.75 611.62,-34.75 605.62,-40.75 599.62,-40.75"/>
<text xml:space="preserve" text-anchor="start" x="549.5" y="-22.45" font-family="Helvetica,sans-Serif" font-weight="bold" font-size="14.00">Method</text>
<text xml:space="preserve" text-anchor="start" x="546.12" y="-8.25" font-family="Helvetica,sans-Serif" font-size="9.00" fill="#555555">meas:Method</text>
</g>
<!-- http___example_org_ontology_teamMeasurement_analyticTechnique -->
<g id="node2" class="node">
<title>http___example_org_ontology_teamMeasurement_analyticTechnique</title>
<path fill="#e8f8f7" stroke="#4ecdc4" d="M456.75,-117.5C456.75,-117.5 343,-117.5 343,-117.5 337,-117.5 331,-111.5 331,-105.5 331,-105.5 331,-88.75 331,-88.75 331,-82.75 337,-76.75 343,-76.75 343,-76.75 456.75,-76.75 456.75,-76.75 462.75,-76.75 468.75,-82.75 468.75,-88.75 468.75,-88.75 468.75,-105.5 468.75,-105.5 468.75,-111.5 462.75,-117.5 456.75,-117.5"/>
<text xml:space="preserve" text-anchor="start" x="341" y="-99.2" font-family="Helvetica,sans-Serif" font-weight="bold" font-size="14.00">analyticTechnique</text>
<text xml:space="preserve" text-anchor="start" x="350.38" y="-85" font-family="Helvetica,sans-Serif" font-size="9.00" fill="#555555">meas:analyticTechnique</text>
</g>
<!-- http___example_org_ontology_teamMeasurement_analyticTechnique&#45;&gt;http___example_org_ontology_teamMeasurement_Method -->
<g id="edge1" class="edge">
<title>http___example_org_ontology_teamMeasurement_analyticTechnique&#45;&gt;http___example_org_ontology_teamMeasurement_Method</title>
<path fill="none" stroke="#666666" d="M469.23,-87C512.13,-87 559.06,-87 559.06,-87 559.06,-87 559.06,-52.6 559.06,-52.6"/>
<polygon fill="none" stroke="#666666" points="562.56,-52.6 559.06,-42.6 555.56,-52.6 562.56,-52.6"/>
</g>
<!-- http___example_org_ontology_teamMeasurement_levelOfAnalysis -->
<g id="node3" class="node">
<title>http___example_org_ontology_teamMeasurement_levelOfAnalysis</title>
<path fill="#e8f8f7" stroke="#4ecdc4" d="M797.5,-117.5C797.5,-117.5 700.25,-117.5 700.25,-117.5 694.25,-117.5 688.25,-111.5 688.25,-105.5 688.25,-105.5 688.25,-88.75 688.25,-88.75 688.25,-82.75 694.25,-76.75 700.25,-76.75 700.25,-76.75 797.5,-76.75 797.5,-76.75 803.5,-76.75 809.5,-82.75 809.5,-88.75 809.5,-88.75 809.5,-105.5 809.5,-105.5 809.5,-111.5 803.5,-117.5 797.5,-117.5"/>
<text xml:space="preserve" text-anchor="start" x="698.25" y="-99.2" font-family="Helvetica,sans-Serif" font-weight="bold" font-size="14.00">levelOfAnalysis</text>
<text xml:space="preserve" text-anchor="start" x="705" y="-85" font-family="Helvetica,sans-Serif" font-size="9.00" fill="#555555">meas:levelOfAnalysis</text>
</g>
<!-- http___example_org_ontology_teamMeasurement_levelOfAnalysis&#45;&gt;http___example_org_ontology_teamMeasurement_Method -->
<g id="edge2" class="edge">
<title>http___example_org_ontology_teamMeasurement_levelOfAnalysis&#45;&gt;http___example_org_ontology_teamMeasurement_Method</title>
<path fill="none" stroke="#666666" d="M688.15,-107C649.87,-107 607.62,-107 607.62,-107 607.62,-107 607.62,-52.42 607.62,-52.42"/>
<polygon fill="none" stroke="#666666" points="611.13,-52.42 607.63,-42.42 604.13,-52.42 611.13,-52.42"/>
</g>
<!-- http___example_org_ontology_teamMeasurement_informationTheoretic -->
<g id="node4" class="node">
<title>http___example_org_ontology_teamMeasurement_informationTheoretic</title>
<path fill="#e8f8f7" stroke="#4ecdc4" d="M143.75,-194.25C143.75,-194.25 12,-194.25 12,-194.25 6,-194.25 0,-188.25 0,-182.25 0,-182.25 0,-165.5 0,-165.5 0,-159.5 6,-153.5 12,-153.5 12,-153.5 143.75,-153.5 143.75,-153.5 149.75,-153.5 155.75,-159.5 155.75,-165.5 155.75,-165.5 155.75,-182.25 155.75,-182.25 155.75,-188.25 149.75,-194.25 143.75,-194.25"/>
<text xml:space="preserve" text-anchor="start" x="10" y="-175.95" font-family="Helvetica,sans-Serif" font-weight="bold" font-size="14.00">informationTheoretic</text>
<text xml:space="preserve" text-anchor="start" x="23.5" y="-161.75" font-family="Helvetica,sans-Serif" font-size="9.00" fill="#555555">meas:informationTheoretic</text>
</g>
<!-- http___example_org_ontology_teamMeasurement_informationTheoretic&#45;&gt;http___example_org_ontology_teamMeasurement_analyticTechnique -->
<g id="edge3" class="edge">
<title>http___example_org_ontology_teamMeasurement_informationTheoretic&#45;&gt;http___example_org_ontology_teamMeasurement_analyticTechnique</title>
<path fill="none" stroke="#666666" d="M77.88,-153.14C77.88,-128.3 77.88,-90 77.88,-90 77.88,-90 319.28,-90 319.28,-90"/>
<polygon fill="none" stroke="#666666" points="319.28,-93.5 329.28,-90 319.28,-86.5 319.28,-93.5"/>
</g>
<!-- http___example_org_ontology_teamMeasurement_networkAnalysis -->
<g id="node5" class="node">
<title>http___example_org_ontology_teamMeasurement_networkAnalysis</title>
<path fill="#e8f8f7" stroke="#4ecdc4" d="M293.88,-194.25C293.88,-194.25 189.88,-194.25 189.88,-194.25 183.88,-194.25 177.88,-188.25 177.88,-182.25 177.88,-182.25 177.88,-165.5 177.88,-165.5 177.88,-159.5 183.88,-153.5 189.88,-153.5 189.88,-153.5 293.88,-153.5 293.88,-153.5 299.88,-153.5 305.88,-159.5 305.88,-165.5 305.88,-165.5 305.88,-182.25 305.88,-182.25 305.88,-188.25 299.88,-194.25 293.88,-194.25"/>
<text xml:space="preserve" text-anchor="start" x="187.88" y="-175.95" font-family="Helvetica,sans-Serif" font-weight="bold" font-size="14.00">networkAnalysis</text>
<text xml:space="preserve" text-anchor="start" x="196.12" y="-161.75" font-family="Helvetica,sans-Serif" font-size="9.00" fill="#555555">meas:networkAnalysis</text>
</g>
<!-- http___example_org_ontology_teamMeasurement_networkAnalysis&#45;&gt;http___example_org_ontology_teamMeasurement_analyticTechnique -->
<g id="edge4" class="edge">
<title>http___example_org_ontology_teamMeasurement_networkAnalysis&#45;&gt;http___example_org_ontology_teamMeasurement_analyticTechnique</title>
<path fill="none" stroke="#666666" d="M241.88,-153.29C241.88,-132.68 241.88,-104 241.88,-104 241.88,-104 319.06,-104 319.06,-104"/>
<polygon fill="none" stroke="#666666" points="319.06,-107.5 329.06,-104 319.06,-100.5 319.06,-107.5"/>
</g>
<!-- http___example_org_ontology_teamMeasurement_simpleAggregation -->
<g id="node6" class="node">
<title>http___example_org_ontology_teamMeasurement_simpleAggregation</title>
<path fill="#e8f8f7" stroke="#4ecdc4" d="M459.38,-194.25C459.38,-194.25 340.38,-194.25 340.38,-194.25 334.38,-194.25 328.38,-188.25 328.38,-182.25 328.38,-182.25 328.38,-165.5 328.38,-165.5 328.38,-159.5 334.38,-153.5 340.38,-153.5 340.38,-153.5 459.38,-153.5 459.38,-153.5 465.38,-153.5 471.38,-159.5 471.38,-165.5 471.38,-165.5 471.38,-182.25 471.38,-182.25 471.38,-188.25 465.38,-194.25 459.38,-194.25"/>
<text xml:space="preserve" text-anchor="start" x="338.38" y="-175.95" font-family="Helvetica,sans-Serif" font-weight="bold" font-size="14.00">simpleAggregation</text>
<text xml:space="preserve" text-anchor="start" x="348.88" y="-161.75" font-family="Helvetica,sans-Serif" font-size="9.00" fill="#555555">meas:simpleAggregation</text>
</g>
<!-- http___example_org_ontology_teamMeasurement_simpleAggregation&#45;&gt;http___example_org_ontology_teamMeasurement_analyticTechnique -->
<g id="edge5" class="edge">
<title>http___example_org_ontology_teamMeasurement_simpleAggregation&#45;&gt;http___example_org_ontology_teamMeasurement_analyticTechnique</title>
<path fill="none" stroke="#666666" d="M399.88,-153.31C399.88,-153.31 399.88,-129.26 399.88,-129.26"/>
<polygon fill="none" stroke="#666666" points="403.38,-129.26 399.88,-119.26 396.38,-129.26 403.38,-129.26"/>
</g>
<!-- http___example_org_ontology_teamMeasurement_synchrony -->
<g id="node7" class="node">
<title>http___example_org_ontology_teamMeasurement_synchrony</title>
<path fill="#e8f8f7" stroke="#4ecdc4" d="M570,-194.25C570,-194.25 505.75,-194.25 505.75,-194.25 499.75,-194.25 493.75,-188.25 493.75,-182.25 493.75,-182.25 493.75,-165.5 493.75,-165.5 493.75,-159.5 499.75,-153.5 505.75,-153.5 505.75,-153.5 570,-153.5 570,-153.5 576,-153.5 582,-159.5 582,-165.5 582,-165.5 582,-182.25 582,-182.25 582,-188.25 576,-194.25 570,-194.25"/>
<text xml:space="preserve" text-anchor="start" x="503.75" y="-175.95" font-family="Helvetica,sans-Serif" font-weight="bold" font-size="14.00">syncrhony</text>
<text xml:space="preserve" text-anchor="start" x="504.5" y="-161.75" font-family="Helvetica,sans-Serif" font-size="9.00" fill="#555555">meas:synchrony</text>
</g>
<!-- http___example_org_ontology_teamMeasurement_synchrony&#45;&gt;http___example_org_ontology_teamMeasurement_analyticTechnique -->
<g id="edge6" class="edge">
<title>http___example_org_ontology_teamMeasurement_synchrony&#45;&gt;http___example_org_ontology_teamMeasurement_analyticTechnique</title>
<path fill="none" stroke="#666666" d="M514.94,-153.27C514.94,-130.5 514.94,-97 514.94,-97 514.94,-97 480.64,-97 480.64,-97"/>
<polygon fill="none" stroke="#666666" points="480.64,-93.5 470.64,-97 480.64,-100.5 480.64,-93.5"/>
</g>
<!-- http___example_org_ontology_teamMeasurement_crossLevel -->
<g id="node8" class="node">
<title>http___example_org_ontology_teamMeasurement_crossLevel</title>
<path fill="#e8f8f7" stroke="#4ecdc4" d="M682.12,-194.25C682.12,-194.25 615.62,-194.25 615.62,-194.25 609.62,-194.25 603.62,-188.25 603.62,-182.25 603.62,-182.25 603.62,-165.5 603.62,-165.5 603.62,-159.5 609.62,-153.5 615.62,-153.5 615.62,-153.5 682.12,-153.5 682.12,-153.5 688.12,-153.5 694.12,-159.5 694.12,-165.5 694.12,-165.5 694.12,-182.25 694.12,-182.25 694.12,-188.25 688.12,-194.25 682.12,-194.25"/>
<text xml:space="preserve" text-anchor="start" x="613.62" y="-175.95" font-family="Helvetica,sans-Serif" font-weight="bold" font-size="14.00">crossLevel</text>
<text xml:space="preserve" text-anchor="start" x="614.38" y="-161.75" font-family="Helvetica,sans-Serif" font-size="9.00" fill="#555555">meas:crossLevel</text>
</g>
<!-- http___example_org_ontology_teamMeasurement_crossLevel&#45;&gt;http___example_org_ontology_teamMeasurement_levelOfAnalysis -->
<g id="edge7" class="edge">
<title>http___example_org_ontology_teamMeasurement_crossLevel&#45;&gt;http___example_org_ontology_teamMeasurement_levelOfAnalysis</title>
<path fill="none" stroke="#666666" d="M694.38,-174C700.79,-174 705.25,-174 705.25,-174 705.25,-174 705.25,-129.24 705.25,-129.24"/>
<polygon fill="none" stroke="#666666" points="708.75,-129.24 705.25,-119.24 701.75,-129.24 708.75,-129.24"/>
</g>
<!-- http___example_org_ontology_teamMeasurement_dyad -->
<g id="node9" class="node">
<title>http___example_org_ontology_teamMeasurement_dyad</title>
<path fill="#e8f8f7" stroke="#4ecdc4" d="M769.38,-194.25C769.38,-194.25 728.38,-194.25 728.38,-194.25 722.38,-194.25 716.38,-188.25 716.38,-182.25 716.38,-182.25 716.38,-165.5 716.38,-165.5 716.38,-159.5 722.38,-153.5 728.38,-153.5 728.38,-153.5 769.38,-153.5 769.38,-153.5 775.38,-153.5 781.38,-159.5 781.38,-165.5 781.38,-165.5 781.38,-182.25 781.38,-182.25 781.38,-188.25 775.38,-194.25 769.38,-194.25"/>
<text xml:space="preserve" text-anchor="start" x="733.12" y="-175.95" font-family="Helvetica,sans-Serif" font-weight="bold" font-size="14.00">dyad</text>
<text xml:space="preserve" text-anchor="start" x="726.38" y="-161.75" font-family="Helvetica,sans-Serif" font-size="9.00" fill="#555555">meas:dyad</text>
</g>
<!-- http___example_org_ontology_teamMeasurement_dyad&#45;&gt;http___example_org_ontology_teamMeasurement_levelOfAnalysis -->
<g id="edge8" class="edge">
<title>http___example_org_ontology_teamMeasurement_dyad&#45;&gt;http___example_org_ontology_teamMeasurement_levelOfAnalysis</title>
<path fill="none" stroke="#666666" d="M748.88,-153.31C748.88,-153.31 748.88,-129.26 748.88,-129.26"/>
<polygon fill="none" stroke="#666666" points="752.38,-129.26 748.88,-119.26 745.38,-129.26 752.38,-129.26"/>
</g>
<!-- http___example_org_ontology_teamMeasurement_individual -->
<g id="node10" class="node">
<title>http___example_org_ontology_teamMeasurement_individual</title>
<path fill="#e8f8f7" stroke="#4ecdc4" d="M876.12,-194.25C876.12,-194.25 815.62,-194.25 815.62,-194.25 809.62,-194.25 803.62,-188.25 803.62,-182.25 803.62,-182.25 803.62,-165.5 803.62,-165.5 803.62,-159.5 809.62,-153.5 815.62,-153.5 815.62,-153.5 876.12,-153.5 876.12,-153.5 882.12,-153.5 888.12,-159.5 888.12,-165.5 888.12,-165.5 888.12,-182.25 888.12,-182.25 888.12,-188.25 882.12,-194.25 876.12,-194.25"/>
<text xml:space="preserve" text-anchor="start" x="814.38" y="-175.95" font-family="Helvetica,sans-Serif" font-weight="bold" font-size="14.00">individual</text>
<text xml:space="preserve" text-anchor="start" x="813.62" y="-161.75" font-family="Helvetica,sans-Serif" font-size="9.00" fill="#555555">meas:individual</text>
</g>
<!-- http___example_org_ontology_teamMeasurement_individual&#45;&gt;http___example_org_ontology_teamMeasurement_levelOfAnalysis -->
<g id="edge9" class="edge">
<title>http___example_org_ontology_teamMeasurement_individual&#45;&gt;http___example_org_ontology_teamMeasurement_levelOfAnalysis</title>
<path fill="none" stroke="#666666" d="M803.3,-174C796.96,-174 792.5,-174 792.5,-174 792.5,-174 792.5,-129.24 792.5,-129.24"/>
<polygon fill="none" stroke="#666666" points="796,-129.24 792.5,-119.24 789,-129.24 796,-129.24"/>
</g>
<!-- http___example_org_ontology_teamMeasurement_team -->
<g id="node11" class="node">
<title>http___example_org_ontology_teamMeasurement_team</title>
<path fill="#e8f8f7" stroke="#4ecdc4" d="M963.38,-194.25C963.38,-194.25 922.38,-194.25 922.38,-194.25 916.38,-194.25 910.38,-188.25 910.38,-182.25 910.38,-182.25 910.38,-165.5 910.38,-165.5 910.38,-159.5 916.38,-153.5 922.38,-153.5 922.38,-153.5 963.38,-153.5 963.38,-153.5 969.38,-153.5 975.38,-159.5 975.38,-165.5 975.38,-165.5 975.38,-182.25 975.38,-182.25 975.38,-188.25 969.38,-194.25 963.38,-194.25"/>
<text xml:space="preserve" text-anchor="start" x="926.75" y="-175.95" font-family="Helvetica,sans-Serif" font-weight="bold" font-size="14.00">team</text>
<text xml:space="preserve" text-anchor="start" x="920.38" y="-161.75" font-family="Helvetica,sans-Serif" font-size="9.00" fill="#555555">meas:team</text>
</g>
<!-- http___example_org_ontology_teamMeasurement_team&#45;&gt;http___example_org_ontology_teamMeasurement_levelOfAnalysis -->
<g id="edge10" class="edge">
<title>http___example_org_ontology_teamMeasurement_team&#45;&gt;http___example_org_ontology_teamMeasurement_levelOfAnalysis</title>
<path fill="none" stroke="#666666" d="M942.88,-153.27C942.88,-130.5 942.88,-97 942.88,-97 942.88,-97 821.51,-97 821.51,-97"/>
<polygon fill="none" stroke="#666666" points="821.51,-93.5 811.51,-97 821.51,-100.5 821.51,-93.5"/>
</g>
<!-- http___example_org_ontology_teamMeasurement_CRQA -->
<g id="node12" class="node">
<title>http___example_org_ontology_teamMeasurement_CRQA</title>
<path fill="#e8f8f7" stroke="#4ecdc4" d="M101.38,-271C101.38,-271 54.38,-271 54.38,-271 48.38,-271 42.38,-265 42.38,-259 42.38,-259 42.38,-242.25 42.38,-242.25 42.38,-236.25 48.38,-230.25 54.38,-230.25 54.38,-230.25 101.38,-230.25 101.38,-230.25 107.38,-230.25 113.38,-236.25 113.38,-242.25 113.38,-242.25 113.38,-259 113.38,-259 113.38,-265 107.38,-271 101.38,-271"/>
<text xml:space="preserve" text-anchor="start" x="57.62" y="-252.7" font-family="Helvetica,sans-Serif" font-weight="bold" font-size="14.00">CRQA</text>
<text xml:space="preserve" text-anchor="start" x="52.38" y="-238.5" font-family="Helvetica,sans-Serif" font-size="9.00" fill="#555555">meas:CRQA</text>
</g>
<!-- http___example_org_ontology_teamMeasurement_CRQA&#45;&gt;http___example_org_ontology_teamMeasurement_informationTheoretic -->
<g id="edge11" class="edge">
<title>http___example_org_ontology_teamMeasurement_CRQA&#45;&gt;http___example_org_ontology_teamMeasurement_informationTheoretic</title>
<path fill="none" stroke="#666666" d="M77.88,-230.06C77.88,-230.06 77.88,-206.01 77.88,-206.01"/>
<polygon fill="none" stroke="#666666" points="81.38,-206.01 77.88,-196.01 74.38,-206.01 81.38,-206.01"/>
</g>
</g>
</svg>
