<?xml version="1.0" encoding="UTF-8" standalone="no"?>
<!DOCTYPE svg PUBLIC "-//W3C//DTD SVG 1.1//EN"
 "http://www.w3.org/Graphics/SVG/1.1/DTD/svg11.dtd">
<!-- Generated by graphviz version 14.1.5 (20260411.2331)
 -->
<!-- Title: hierarchy_Modality Pages: 1 -->
<svg width="1401pt" height="456pt"
 viewBox="0.00 0.00 1401.00 456.00" xmlns="http://www.w3.org/2000/svg" xmlns:xlink="http://www.w3.org/1999/xlink">
<g id="graph0" class="graph" transform="scale(1 1) rotate(0) translate(4 451.5)">
<title>hierarchy_Modality</title>
<polygon fill="white" stroke="none" points="-4,4 -4,-451.5 1397.25,-451.5 1397.25,4 -4,4"/>
<text xml:space="preserve" text-anchor="middle" x="696.62" y="-430.2" font-family="Helvetica,sans-Serif" font-size="14.00">Modality hierarchy</text>
<!-- http___example_org_ontology_teamMeasurement_Modality -->
<g id="node1" class="node">
<title>http___example_org_ontology_teamMeasurement_Modality</title>
<path fill="#e8f8f7" stroke="#4ecdc4" d="M788,-40.75C788,-40.75 732.75,-40.75 732.75,-40.75 726.75,-40.75 720.75,-34.75 720.75,-28.75 720.75,-28.75 720.75,-12 720.75,-12 720.75,-6 726.75,0 732.75,0 732.75,0 788,0 788,0 794,0 800,-6 800,-12 800,-12 800,-28.75 800,-28.75 800,-34.75 794,-40.75 788,-40.75"/>
<text xml:space="preserve" text-anchor="start" x="732.62" y="-22.45" font-family="Helvetica,sans-Serif" font-weight="bold" font-size="14.00">Modality</text>
<text xml:space="preserve" text-anchor="start" x="730.75" y="-8.25" font-family="Helvetica,sans-Serif" font-size="9.00" fill="#555555">meas:Modality</text>
</g>
<!-- http___example_org_ontology_teamMeasurement_behavior -->
<g id="node2" class="node">
<title>http___example_org_ontology_teamMeasurement_behavior</title>
<path fill="#e8f8f7" stroke="#4ecdc4" d="M347.75,-117.5C347.75,-117.5 291,-117.5 291,-117.5 285,-117.5 279,-111.5 279,-105.5 279,-105.5 279,-88.75 279,-88.75 279,-82.75 285,-76.75 291,-76.75 291,-76.75 347.75,-76.75 347.75,-76.75 353.75,-76.75 359.75,-82.75 359.75,-88.75 359.75,-88.75 359.75,-105.5 359.75,-105.5 359.75,-111.5 353.75,-117.5 347.75,-117.5"/>
<text xml:space="preserve" text-anchor="start" x="291.25" y="-99.2" font-family="Helvetica,sans-Serif" font-weight="bold" font-size="14.00">behavior</text>
<text xml:space="preserve" text-anchor="start" x="289" y="-85" font-family="Helvetica,sans-Serif" font-size="9.00" fill="#555555">meas:behavior</text>
</g>
<!-- http___example_org_ontology_teamMeasurement_behavior&#45;&gt;http___example_org_ontology_teamMeasurement_Modality -->
<g id="edge1" class="edge">
<title>http___example_org_ontology_teamMeasurement_behavior&#45;&gt;http___example_org_ontology_teamMeasurement_Modality</title>
<path fill="none" stroke="#666666" d="M319.38,-76.58C319.38,-51.96 319.38,-14 319.38,-14 319.38,-14 708.95,-14 708.95,-14"/>
<polygon fill="none" stroke="#666666" points="708.95,-17.5 718.95,-14 708.95,-10.5 708.95,-17.5"/>
</g>
<!-- http___example_org_ontology_teamMeasurement_communication -->
<g id="node3" class="node">
<title>http___example_org_ontology_teamMeasurement_communication</title>
<path fill="#e8f8f7" stroke="#4ecdc4" d="M678,-117.5C678,-117.5 580.75,-117.5 580.75,-117.5 574.75,-117.5 568.75,-111.5 568.75,-105.5 568.75,-105.5 568.75,-88.75 568.75,-88.75 568.75,-82.75 574.75,-76.75 580.75,-76.75 580.75,-76.75 678,-76.75 678,-76.75 684,-76.75 690,-82.75 690,-88.75 690,-88.75 690,-105.5 690,-105.5 690,-111.5 684,-117.5 678,-117.5"/>
<text xml:space="preserve" text-anchor="start" x="578.75" y="-99.2" font-family="Helvetica,sans-Serif" font-weight="bold" font-size="14.00">communication</text>
<text xml:space="preserve" text-anchor="start" x="585.88" y="-85" font-family="Helvetica,sans-Serif" font-size="9.00" fill="#555555">meas:communication</text>
</g>
<!-- http___example_org_ontology_teamMeasurement_communication&#45;&gt;http___example_org_ontology_teamMeasurement_Modality -->
<g id="edge2" class="edge">
<title>http___example_org_ontology_teamMeasurement_communication&#45;&gt;http___example_org_ontology_teamMeasurement_Modality</title>
<path fill="none" stroke="#666666" d="M629.38,-76.46C629.38,-55.78 629.38,-27 629.38,-27 629.38,-27 708.85,-27 708.85,-27"/>
<polygon fill="none" stroke="#666666" points="708.85,-30.5 718.85,-27 708.85,-23.5 708.85,-30.5"/>
</g>
<!-- http___example_org_ontology_teamMeasurement_observation -->
<g id="node4" class="node">
<title>http___example_org_ontology_teamMeasurement_observation</title>
<path fill="#e8f8f7" stroke="#4ecdc4" d="M796.62,-117.5C796.62,-117.5 724.12,-117.5 724.12,-117.5 718.12,-117.5 712.12,-111.5 712.12,-105.5 712.12,-105.5 712.12,-88.75 712.12,-88.75 712.12,-82.75 718.12,-76.75 724.12,-76.75 724.12,-76.75 796.62,-76.75 796.62,-76.75 802.62,-76.75 808.62,-82.75 808.62,-88.75 808.62,-88.75 808.62,-105.5 808.62,-105.5 808.62,-111.5 802.62,-117.5 796.62,-117.5"/>
<text xml:space="preserve" text-anchor="start" x="722.12" y="-99.2" font-family="Helvetica,sans-Serif" font-weight="bold" font-size="14.00">observation</text>
<text xml:space="preserve" text-anchor="start" x="724" y="-85" font-family="Helvetica,sans-Serif" font-size="9.00" fill="#555555">meas:observation</text>
</g>
<!-- http___example_org_ontology_teamMeasurement_observation&#45;&gt;http___example_org_ontology_teamMeasurement_Modality -->
<g id="edge3" class="edge">
<title>http___example_org_ontology_teamMeasurement_observation&#45;&gt;http___example_org_ontology_teamMeasurement_Modality</title>
<path fill="none" stroke="#666666" d="M760.38,-76.56C760.38,-76.56 760.38,-52.51 760.38,-52.51"/>
<polygon fill="none" stroke="#666666" points="763.88,-52.51 760.38,-42.51 756.88,-52.51 763.88,-52.51"/>
</g>
<!-- http___example_org_ontology_teamMeasurement_physiology -->
<g id="node5" class="node">
<title>http___example_org_ontology_teamMeasurement_physiology</title>
<path fill="#e8f8f7" stroke="#4ecdc4" d="M1287.62,-117.5C1287.62,-117.5 843.12,-117.5 843.12,-117.5 837.12,-117.5 831.12,-111.5 831.12,-105.5 831.12,-105.5 831.12,-88.75 831.12,-88.75 831.12,-82.75 837.12,-76.75 843.12,-76.75 843.12,-76.75 1287.62,-76.75 1287.62,-76.75 1293.62,-76.75 1299.62,-82.75 1299.62,-88.75 1299.62,-88.75 1299.62,-105.5 1299.62,-105.5 1299.62,-111.5 1293.62,-117.5 1287.62,-117.5"/>
<text xml:space="preserve" text-anchor="start" x="841.12" y="-99.2" font-family="Helvetica,sans-Serif" font-weight="bold" font-size="14.00">Measures generated from physiological monitoring of team members</text>
<text xml:space="preserve" text-anchor="start" x="1030.88" y="-85" font-family="Helvetica,sans-Serif" font-size="9.00" fill="#555555">meas:physiology</text>
</g>
<!-- http___example_org_ontology_teamMeasurement_physiology&#45;&gt;http___example_org_ontology_teamMeasurement_Modality -->
<g id="edge4" class="edge">
<title>http___example_org_ontology_teamMeasurement_physiology&#45;&gt;http___example_org_ontology_teamMeasurement_Modality</title>
<path fill="none" stroke="#666666" d="M1065.38,-76.46C1065.38,-55.78 1065.38,-27 1065.38,-27 1065.38,-27 811.76,-27 811.76,-27"/>
<polygon fill="none" stroke="#666666" points="811.76,-23.5 801.76,-27 811.76,-30.5 811.76,-23.5"/>
</g>
<!-- http___example_org_ontology_teamMeasurement_survey -->
<g id="node6" class="node">
<title>http___example_org_ontology_teamMeasurement_survey</title>
<path fill="#e8f8f7" stroke="#4ecdc4" d="M1381.25,-117.5C1381.25,-117.5 1333.5,-117.5 1333.5,-117.5 1327.5,-117.5 1321.5,-111.5 1321.5,-105.5 1321.5,-105.5 1321.5,-88.75 1321.5,-88.75 1321.5,-82.75 1327.5,-76.75 1333.5,-76.75 1333.5,-76.75 1381.25,-76.75 1381.25,-76.75 1387.25,-76.75 1393.25,-82.75 1393.25,-88.75 1393.25,-88.75 1393.25,-105.5 1393.25,-105.5 1393.25,-111.5 1387.25,-117.5 1381.25,-117.5"/>
<text xml:space="preserve" text-anchor="start" x="1335.62" y="-99.2" font-family="Helvetica,sans-Serif" font-weight="bold" font-size="14.00">survey</text>
<text xml:space="preserve" text-anchor="start" x="1331.5" y="-85" font-family="Helvetica,sans-Serif" font-size="9.00" fill="#555555">meas:survey</text>
</g>
<!-- http___example_org_ontology_teamMeasurement_survey&#45;&gt;http___example_org_ontology_teamMeasurement_Modality -->
<g id="edge5" class="edge">
<title>http___example_org_ontology_teamMeasurement_survey&#45;&gt;http___example_org_ontology_teamMeasurement_Modality</title>
<path fill="none" stroke="#666666" d="M1357.38,-76.58C1357.38,-51.96 1357.38,-14 1357.38,-14 1357.38,-14 811.99,-14 811.99,-14"/>
<polygon fill="none" stroke="#666666" points="811.99,-10.5 801.99,-14 811.99,-17.5 811.99,-10.5"/>
</g>
<!-- http___example_org_ontology_teamMeasurement_activityTracking -->
<g id="node7" class="node">
<title>http___example_org_ontology_teamMeasurement_activityTracking</title>
<path fill="#e8f8f7" stroke="#4ecdc4" d="M110.75,-194.25C110.75,-194.25 12,-194.25 12,-194.25 6,-194.25 0,-188.25 0,-182.25 0,-182.25 0,-165.5 0,-165.5 0,-159.5 6,-153.5 12,-153.5 12,-153.5 110.75,-153.5 110.75,-153.5 116.75,-153.5 122.75,-159.5 122.75,-165.5 122.75,-165.5 122.75,-182.25 122.75,-182.25 122.75,-188.25 116.75,-194.25 110.75,-194.25"/>
<text xml:space="preserve" text-anchor="start" x="10" y="-175.95" font-family="Helvetica,sans-Serif" font-weight="bold" font-size="14.00">activityTracking</text>
<text xml:space="preserve" text-anchor="start" x="17.5" y="-161.75" font-family="Helvetica,sans-Serif" font-size="9.00" fill="#555555">meas:activityTracking</text>
</g>
<!-- http___example_org_ontology_teamMeasurement_activityTracking&#45;&gt;http___example_org_ontology_teamMeasurement_behavior -->
<g id="edge6" class="edge">
<title>http___example_org_ontology_teamMeasurement_activityTracking&#45;&gt;http___example_org_ontology_teamMeasurement_behavior</title>
<path fill="none" stroke="#666666" d="M61.38,-153.14C61.38,-128.3 61.38,-90 61.38,-90 61.38,-90 267.27,-90 267.27,-90"/>
<polygon fill="none" stroke="#666666" points="267.27,-93.5 277.27,-90 267.27,-86.5 267.27,-93.5"/>
</g>
<!-- http___example_org_ontology_teamMeasurement_eyeMovement -->
<g id="node8" class="node">
<title>http___example_org_ontology_teamMeasurement_eyeMovement</title>
<path fill="#e8f8f7" stroke="#4ecdc4" d="M248,-194.25C248,-194.25 156.75,-194.25 156.75,-194.25 150.75,-194.25 144.75,-188.25 144.75,-182.25 144.75,-182.25 144.75,-165.5 144.75,-165.5 144.75,-159.5 150.75,-153.5 156.75,-153.5 156.75,-153.5 248,-153.5 248,-153.5 254,-153.5 260,-159.5 260,-165.5 260,-165.5 260,-182.25 260,-182.25 260,-188.25 254,-194.25 248,-194.25"/>
<text xml:space="preserve" text-anchor="start" x="154.75" y="-175.95" font-family="Helvetica,sans-Serif" font-weight="bold" font-size="14.00">eye movement</text>
<text xml:space="preserve" text-anchor="start" x="161.12" y="-161.75" font-family="Helvetica,sans-Serif" font-size="9.00" fill="#555555">meas:eyeMovement</text>
</g>
<!-- http___example_org_ontology_teamMeasurement_eyeMovement&#45;&gt;http___example_org_ontology_teamMeasurement_behavior -->
<g id="edge7" class="edge">
<title>http___example_org_ontology_teamMeasurement_eyeMovement&#45;&gt;http___example_org_ontology_teamMeasurement_behavior</title>
<path fill="none" stroke="#666666" d="M202.38,-153.29C202.38,-132.68 202.38,-104 202.38,-104 202.38,-104 267.27,-104 267.27,-104"/>
<polygon fill="none" stroke="#666666" points="267.27,-107.5 277.27,-104 267.27,-100.5 267.27,-107.5"/>
</g>
<!-- http___example_org_ontology_teamMeasurement_gesture -->
<g id="node9" class="node">
<title>http___example_org_ontology_teamMeasurement_gesture</title>
<path fill="#e8f8f7" stroke="#4ecdc4" d="M345.12,-194.25C345.12,-194.25 293.62,-194.25 293.62,-194.25 287.62,-194.25 281.62,-188.25 281.62,-182.25 281.62,-182.25 281.62,-165.5 281.62,-165.5 281.62,-159.5 287.62,-153.5 293.62,-153.5 293.62,-153.5 345.12,-153.5 345.12,-153.5 351.12,-153.5 357.12,-159.5 357.12,-165.5 357.12,-165.5 357.12,-182.25 357.12,-182.25 357.12,-188.25 351.12,-194.25 345.12,-194.25"/>
<text xml:space="preserve" text-anchor="start" x="295" y="-175.95" font-family="Helvetica,sans-Serif" font-weight="bold" font-size="14.00">gesture</text>
<text xml:space="preserve" text-anchor="start" x="291.62" y="-161.75" font-family="Helvetica,sans-Serif" font-size="9.00" fill="#555555">meas:gesture</text>
</g>
<!-- http___example_org_ontology_teamMeasurement_gesture&#45;&gt;http___example_org_ontology_teamMeasurement_behavior -->
<g id="edge8" class="edge">
<title>http___example_org_ontology_teamMeasurement_gesture&#45;&gt;http___example_org_ontology_teamMeasurement_behavior</title>
<path fill="none" stroke="#666666" d="M319.38,-153.31C319.38,-153.31 319.38,-129.26 319.38,-129.26"/>
<polygon fill="none" stroke="#666666" points="322.88,-129.26 319.38,-119.26 315.88,-129.26 322.88,-129.26"/>
</g>
<!-- http___example_org_ontology_teamMeasurement_physicalMovement -->
<g id="node10" class="node">
<title>http___example_org_ontology_teamMeasurement_physicalMovement</title>
<path fill="#e8f8f7" stroke="#4ecdc4" d="M509.5,-194.25C509.5,-194.25 391.25,-194.25 391.25,-194.25 385.25,-194.25 379.25,-188.25 379.25,-182.25 379.25,-182.25 379.25,-165.5 379.25,-165.5 379.25,-159.5 385.25,-153.5 391.25,-153.5 391.25,-153.5 509.5,-153.5 509.5,-153.5 515.5,-153.5 521.5,-159.5 521.5,-165.5 521.5,-165.5 521.5,-182.25 521.5,-182.25 521.5,-188.25 515.5,-194.25 509.5,-194.25"/>
<text xml:space="preserve" text-anchor="start" x="389.25" y="-175.95" font-family="Helvetica,sans-Serif" font-weight="bold" font-size="14.00">physicalMovement</text>
<text xml:space="preserve" text-anchor="start" x="399.75" y="-161.75" font-family="Helvetica,sans-Serif" font-size="9.00" fill="#555555">meas:physicalMovement</text>
</g>
<!-- http___example_org_ontology_teamMeasurement_physicalMovement&#45;&gt;http___example_org_ontology_teamMeasurement_behavior -->
<g id="edge9" class="edge">
<title>http___example_org_ontology_teamMeasurement_physicalMovement&#45;&gt;http___example_org_ontology_teamMeasurement_behavior</title>
<path fill="none" stroke="#666666" d="M450.38,-153.27C450.38,-130.5 450.38,-97 450.38,-97 450.38,-97 371.62,-97 371.62,-97"/>
<polygon fill="none" stroke="#666666" points="371.62,-93.5 361.62,-97 371.62,-100.5 371.62,-93.5"/>
</g>
<!-- http___example_org_ontology_teamMeasurement_communicationContent -->
<g id="node11" class="node">
<title>http___example_org_ontology_teamMeasurement_communicationContent</title>
<path fill="#e8f8f7" stroke="#4ecdc4" d="M703.5,-194.25C703.5,-194.25 555.25,-194.25 555.25,-194.25 549.25,-194.25 543.25,-188.25 543.25,-182.25 543.25,-182.25 543.25,-165.5 543.25,-165.5 543.25,-159.5 549.25,-153.5 555.25,-153.5 555.25,-153.5 703.5,-153.5 703.5,-153.5 709.5,-153.5 715.5,-159.5 715.5,-165.5 715.5,-165.5 715.5,-182.25 715.5,-182.25 715.5,-188.25 709.5,-194.25 703.5,-194.25"/>
<text xml:space="preserve" text-anchor="start" x="553.25" y="-175.95" font-family="Helvetica,sans-Serif" font-weight="bold" font-size="14.00">communicationContent</text>
<text xml:space="preserve" text-anchor="start" x="569.75" y="-161.75" font-family="Helvetica,sans-Serif" font-size="9.00" fill="#555555">meas:communicationContent</text>
</g>
<!-- http___example_org_ontology_teamMeasurement_communicationContent&#45;&gt;http___example_org_ontology_teamMeasurement_communication -->
<g id="edge10" class="edge">
<title>http___example_org_ontology_teamMeasurement_communicationContent&#45;&gt;http___example_org_ontology_teamMeasurement_communication</title>
<path fill="none" stroke="#666666" d="M609.17,-153.31C609.17,-153.31 609.17,-129.26 609.17,-129.26"/>
<polygon fill="none" stroke="#666666" points="612.67,-129.26 609.17,-119.26 605.67,-129.26 612.67,-129.26"/>
</g>
<!-- http___example_org_ontology_teamMeasurement_communicationFlow -->
<g id="node12" class="node">
<title>http___example_org_ontology_teamMeasurement_communicationFlow</title>
<path fill="#e8f8f7" stroke="#4ecdc4" d="M878.75,-194.25C878.75,-194.25 750,-194.25 750,-194.25 744,-194.25 738,-188.25 738,-182.25 738,-182.25 738,-165.5 738,-165.5 738,-159.5 744,-153.5 750,-153.5 750,-153.5 878.75,-153.5 878.75,-153.5 884.75,-153.5 890.75,-159.5 890.75,-165.5 890.75,-165.5 890.75,-182.25 890.75,-182.25 890.75,-188.25 884.75,-194.25 878.75,-194.25"/>
<text xml:space="preserve" text-anchor="start" x="748" y="-175.95" font-family="Helvetica,sans-Serif" font-weight="bold" font-size="14.00">communicationFlow</text>
<text xml:space="preserve" text-anchor="start" x="761.12" y="-161.75" font-family="Helvetica,sans-Serif" font-size="9.00" fill="#555555">meas:communicationFlow</text>
</g>
<!-- http___example_org_ontology_teamMeasurement_communicationFlow&#45;&gt;http___example_org_ontology_teamMeasurement_communication -->
<g id="edge11" class="edge">
<title>http___example_org_ontology_teamMeasurement_communicationFlow&#45;&gt;http___example_org_ontology_teamMeasurement_communication</title>
<path fill="none" stroke="#666666" d="M773.31,-153.16C773.31,-144.32 773.31,-136 773.31,-136 773.31,-136 649.58,-136 649.58,-136 649.58,-136 649.58,-129.44 649.58,-129.44"/>
<polygon fill="none" stroke="#666666" points="653.08,-129.44 649.58,-119.44 646.08,-129.44 653.08,-129.44"/>
</g>
<!-- http___example_org_ontology_teamMeasurement_CNS -->
<g id="node13" class="node">
<title>http___example_org_ontology_teamMeasurement_CNS</title>
<path fill="#e8f8f7" stroke="#4ecdc4" d="M1042.5,-194.25C1042.5,-194.25 1002.25,-194.25 1002.25,-194.25 996.25,-194.25 990.25,-188.25 990.25,-182.25 990.25,-182.25 990.25,-165.5 990.25,-165.5 990.25,-159.5 996.25,-153.5 1002.25,-153.5 1002.25,-153.5 1042.5,-153.5 1042.5,-153.5 1048.5,-153.5 1054.5,-159.5 1054.5,-165.5 1054.5,-165.5 1054.5,-182.25 1054.5,-182.25 1054.5,-188.25 1048.5,-194.25 1042.5,-194.25"/>
<text xml:space="preserve" text-anchor="start" x="1008.12" y="-175.95" font-family="Helvetica,sans-Serif" font-weight="bold" font-size="14.00">CNS</text>
<text xml:space="preserve" text-anchor="start" x="1000.25" y="-161.75" font-family="Helvetica,sans-Serif" font-size="9.00" fill="#555555">meas:CNS</text>
</g>
<!-- http___example_org_ontology_teamMeasurement_CNS&#45;&gt;http___example_org_ontology_teamMeasurement_physiology -->
<g id="edge12" class="edge">
<title>http___example_org_ontology_teamMeasurement_CNS&#45;&gt;http___example_org_ontology_teamMeasurement_physiology</title>
<path fill="none" stroke="#666666" d="M1022.38,-153.31C1022.38,-153.31 1022.38,-129.26 1022.38,-129.26"/>
<polygon fill="none" stroke="#666666" points="1025.88,-129.26 1022.38,-119.26 1018.88,-129.26 1025.88,-129.26"/>
</g>
<!-- http___example_org_ontology_teamMeasurement_PNS -->
<g id="node14" class="node">
<title>http___example_org_ontology_teamMeasurement_PNS</title>
<path fill="#e8f8f7" stroke="#4ecdc4" d="M1128.12,-194.25C1128.12,-194.25 1088.62,-194.25 1088.62,-194.25 1082.62,-194.25 1076.62,-188.25 1076.62,-182.25 1076.62,-182.25 1076.62,-165.5 1076.62,-165.5 1076.62,-159.5 1082.62,-153.5 1088.62,-153.5 1088.62,-153.5 1128.12,-153.5 1128.12,-153.5 1134.12,-153.5 1140.12,-159.5 1140.12,-165.5 1140.12,-165.5 1140.12,-182.25 1140.12,-182.25 1140.12,-188.25 1134.12,-194.25 1128.12,-194.25"/>
<text xml:space="preserve" text-anchor="start" x="1094.5" y="-175.95" font-family="Helvetica,sans-Serif" font-weight="bold" font-size="14.00">PNS</text>
<text xml:space="preserve" text-anchor="start" x="1086.62" y="-161.75" font-family="Helvetica,sans-Serif" font-size="9.00" fill="#555555">meas:PNS</text>
</g>
<!-- http___example_org_ontology_teamMeasurement_PNS&#45;&gt;http___example_org_ontology_teamMeasurement_physiology -->
<g id="edge13" class="edge">
<title>http___example_org_ontology_teamMeasurement_PNS&#45;&gt;http___example_org_ontology_teamMeasurement_physiology</title>
<path fill="none" stroke="#666666" d="M1108.38,-153.31C1108.38,-153.31 1108.38,-129.26 1108.38,-129.26"/>
<polygon fill="none" stroke="#666666" points="1111.88,-129.26 1108.38,-119.26 1104.88,-129.26 1111.88,-129.26"/>
</g>
<!-- http___example_org_ontology_teamMeasurement_Lexical -->
<g id="node15" class="node">
<title>http___example_org_ontology_teamMeasurement_Lexical</title>
<path fill="#e8f8f7" stroke="#4ecdc4" d="M554.38,-271C554.38,-271 504.38,-271 504.38,-271 498.38,-271 492.38,-265 492.38,-259 492.38,-259 492.38,-242.25 492.38,-242.25 492.38,-236.25 498.38,-230.25 504.38,-230.25 504.38,-230.25 554.38,-230.25 554.38,-230.25 560.38,-230.25 566.38,-236.25 566.38,-242.25 566.38,-242.25 566.38,-259 566.38,-259 566.38,-265 560.38,-271 554.38,-271"/>
<text xml:space="preserve" text-anchor="start" x="506.5" y="-252.7" font-family="Helvetica,sans-Serif" font-weight="bold" font-size="14.00">Lexical</text>
<text xml:space="preserve" text-anchor="start" x="502.38" y="-238.5" font-family="Helvetica,sans-Serif" font-size="9.00" fill="#555555">meas:Lexical</text>
</g>
<!-- http___example_org_ontology_teamMeasurement_Lexical&#45;&gt;http___example_org_ontology_teamMeasurement_communicationContent -->
<g id="edge14" class="edge">
<title>http___example_org_ontology_teamMeasurement_Lexical&#45;&gt;http___example_org_ontology_teamMeasurement_communicationContent</title>
<path fill="none" stroke="#666666" d="M554.81,-230.06C554.81,-230.06 554.81,-206.01 554.81,-206.01"/>
<polygon fill="none" stroke="#666666" points="558.31,-206.01 554.81,-196.01 551.31,-206.01 558.31,-206.01"/>
</g>
<!-- http___example_org_ontology_teamMeasurement_semantic -->
<g id="node16" class="node">
<title>http___example_org_ontology_teamMeasurement_semantic</title>
<path fill="#e8f8f7" stroke="#4ecdc4" d="M658.12,-271C658.12,-271 600.62,-271 600.62,-271 594.62,-271 588.62,-265 588.62,-259 588.62,-259 588.62,-242.25 588.62,-242.25 588.62,-236.25 594.62,-230.25 600.62,-230.25 600.62,-230.25 658.12,-230.25 658.12,-230.25 664.12,-230.25 670.12,-236.25 670.12,-242.25 670.12,-242.25 670.12,-259 670.12,-259 670.12,-265 664.12,-271 658.12,-271"/>
<text xml:space="preserve" text-anchor="start" x="599.75" y="-252.7" font-family="Helvetica,sans-Serif" font-weight="bold" font-size="14.00">semantic</text>
<text xml:space="preserve" text-anchor="start" x="598.62" y="-238.5" font-family="Helvetica,sans-Serif" font-size="9.00" fill="#555555">meas:semantic</text>
</g>
<!-- http___example_org_ontology_teamMeasurement_semantic&#45;&gt;http___example_org_ontology_teamMeasurement_communicationContent -->
<g id="edge15" class="edge">
<title>http___example_org_ontology_teamMeasurement_semantic&#45;&gt;http___example_org_ontology_teamMeasurement_communicationContent</title>
<path fill="none" stroke="#666666" d="M629.38,-230.06C629.38,-230.06 629.38,-206.01 629.38,-206.01"/>
<polygon fill="none" stroke="#666666" points="632.88,-206.01 629.38,-196.01 625.88,-206.01 632.88,-206.01"/>
</g>
<!-- http___example_org_ontology_teamMeasurement_syntactic -->
<g id="node17" class="node">
<title>http___example_org_ontology_teamMeasurement_syntactic</title>
<path fill="#e8f8f7" stroke="#4ecdc4" d="M760.38,-271C760.38,-271 704.38,-271 704.38,-271 698.38,-271 692.38,-265 692.38,-259 692.38,-259 692.38,-242.25 692.38,-242.25 692.38,-236.25 698.38,-230.25 704.38,-230.25 704.38,-230.25 760.38,-230.25 760.38,-230.25 766.38,-230.25 772.38,-236.25 772.38,-242.25 772.38,-242.25 772.38,-259 772.38,-259 772.38,-265 766.38,-271 760.38,-271"/>
<text xml:space="preserve" text-anchor="start" x="703.12" y="-252.7" font-family="Helvetica,sans-Serif" font-weight="bold" font-size="14.00">syntactic</text>
<text xml:space="preserve" text-anchor="start" x="702.38" y="-238.5" font-family="Helvetica,sans-Serif" font-size="9.00" fill="#555555">meas:syntactic</text>
</g>
<!-- http___example_org_ontology_teamMeasurement_syntactic&#45;&gt;http___example_org_ontology_teamMeasurement_communicationContent -->
<g id="edge16" class="edge">
<title>http___example_org_ontology_teamMeasurement_syntactic&#45;&gt;http___example_org_ontology_teamMeasurement_communicationContent</title>
<path fill="none" stroke="#666666" d="M703.94,-230.06C703.94,-230.06 703.94,-206.01 703.94,-206.01"/>
<polygon fill="none" stroke="#666666" points="707.44,-206.01 703.94,-196.01 700.44,-206.01 707.44,-206.01"/>
</g>
<!-- http___example_org_ontology_teamMeasurement_autonomic -->
<g id="node18" class="node">
<title>http___example_org_ontology_teamMeasurement_autonomic</title>
<path fill="#e8f8f7" stroke="#4ecdc4" d="M1087.88,-271C1087.88,-271 1022.88,-271 1022.88,-271 1016.88,-271 1010.88,-265 1010.88,-259 1010.88,-259 1010.88,-242.25 1010.88,-242.25 1010.88,-236.25 1016.88,-230.25 1022.88,-230.25 1022.88,-230.25 1087.88,-230.25 1087.88,-230.25 1093.88,-230.25 1099.88,-236.25 1099.88,-242.25 1099.88,-242.25 1099.88,-259 1099.88,-259 1099.88,-265 1093.88,-271 1087.88,-271"/>
<text xml:space="preserve" text-anchor="start" x="1020.88" y="-252.7" font-family="Helvetica,sans-Serif" font-weight="bold" font-size="14.00">autonomic</text>
<text xml:space="preserve" text-anchor="start" x="1021.62" y="-238.5" font-family="Helvetica,sans-Serif" font-size="9.00" fill="#555555">meas:autonomic</text>
</g>
<!-- http___example_org_ontology_teamMeasurement_autonomic&#45;&gt;http___example_org_ontology_teamMeasurement_PNS -->
<g id="edge17" class="edge">
<title>http___example_org_ontology_teamMeasurement_autonomic&#45;&gt;http___example_org_ontology_teamMeasurement_PNS</title>
<path fill="none" stroke="#666666" d="M1088.25,-230.06C1088.25,-230.06 1088.25,-206.01 1088.25,-206.01"/>
<polygon fill="none" stroke="#666666" points="1091.75,-206.01 1088.25,-196.01 1084.75,-206.01 1091.75,-206.01"/>
</g>
<!-- http___example_org_ontology_teamMeasurement_somatic -->
<g id="node19" class="node">
<title>http___example_org_ontology_teamMeasurement_somatic</title>
<path fill="#e8f8f7" stroke="#4ecdc4" d="M1186.5,-271C1186.5,-271 1134.25,-271 1134.25,-271 1128.25,-271 1122.25,-265 1122.25,-259 1122.25,-259 1122.25,-242.25 1122.25,-242.25 1122.25,-236.25 1128.25,-230.25 1134.25,-230.25 1134.25,-230.25 1186.5,-230.25 1186.5,-230.25 1192.5,-230.25 1198.5,-236.25 1198.5,-242.25 1198.5,-242.25 1198.5,-259 1198.5,-259 1198.5,-265 1192.5,-271 1186.5,-271"/>
<text xml:space="preserve" text-anchor="start" x="1134.5" y="-252.7" font-family="Helvetica,sans-Serif" font-weight="bold" font-size="14.00">somatic</text>
<text xml:space="preserve" text-anchor="start" x="1132.25" y="-238.5" font-family="Helvetica,sans-Serif" font-size="9.00" fill="#555555">meas:somatic</text>
</g>
<!-- http___example_org_ontology_teamMeasurement_somatic&#45;&gt;http___example_org_ontology_teamMeasurement_PNS -->
<g id="edge18" class="edge">
<title>http___example_org_ontology_teamMeasurement_somatic&#45;&gt;http___example_org_ontology_teamMeasurement_PNS</title>
<path fill="none" stroke="#666666" d="M1131.19,-230.06C1131.19,-230.06 1131.19,-206.01 1131.19,-206.01"/>
<polygon fill="none" stroke="#666666" points="1134.69,-206.01 1131.19,-196.01 1127.69,-206.01 1134.69,-206.01"/>
</g>
<!-- http___example_org_ontology_teamMeasurement_parasympathetic -->
<g id="node20" class="node">
<title>http___example_org_ontology_teamMeasurement_parasympathetic</title>
<path fill="#e8f8f7" stroke="#4ecdc4" d="M1039.38,-347.75C1039.38,-347.75 935.38,-347.75 935.38,-347.75 929.38,-347.75 923.38,-341.75 923.38,-335.75 923.38,-335.75 923.38,-319 923.38,-319 923.38,-313 929.38,-307 935.38,-307 935.38,-307 1039.38,-307 1039.38,-307 1045.38,-307 1051.38,-313 1051.38,-319 1051.38,-319 1051.38,-335.75 1051.38,-335.75 1051.38,-341.75 1045.38,-347.75 1039.38,-347.75"/>
<text xml:space="preserve" text-anchor="start" x="933.38" y="-329.45" font-family="Helvetica,sans-Serif" font-weight="bold" font-size="14.00">parasympathetic</text>
<text xml:space="preserve" text-anchor="start" x="941.25" y="-315.25" font-family="Helvetica,sans-Serif" font-size="9.00" fill="#555555">meas:parasympathetic</text>
</g>
<!-- http___example_org_ontology_teamMeasurement_parasympathetic&#45;&gt;http___example_org_ontology_teamMeasurement_autonomic -->
<g id="edge19" class="edge">
<title>http___example_org_ontology_teamMeasurement_parasympathetic&#45;&gt;http___example_org_ontology_teamMeasurement_autonomic</title>
<path fill="none" stroke="#666666" d="M1031.12,-306.81C1031.12,-306.81 1031.12,-282.76 1031.12,-282.76"/>
<polygon fill="none" stroke="#666666" points="1034.63,-282.76 1031.13,-272.76 1027.63,-282.76 1034.63,-282.76"/>
</g>
<!-- http___example_org_ontology_teamMeasurement_sympathetic -->
<g id="node21" class="node">
<title>http___example_org_ontology_teamMeasurement_sympathetic</title>
<path fill="#e8f8f7" stroke="#4ecdc4" d="M1161.12,-347.75C1161.12,-347.75 1085.62,-347.75 1085.62,-347.75 1079.62,-347.75 1073.62,-341.75 1073.62,-335.75 1073.62,-335.75 1073.62,-319 1073.62,-319 1073.62,-313 1079.62,-307 1085.62,-307 1085.62,-307 1161.12,-307 1161.12,-307 1167.12,-307 1173.12,-313 1173.12,-319 1173.12,-319 1173.12,-335.75 1173.12,-335.75 1173.12,-341.75 1167.12,-347.75 1161.12,-347.75"/>
<text xml:space="preserve" text-anchor="start" x="1083.62" y="-329.45" font-family="Helvetica,sans-Serif" font-weight="bold" font-size="14.00">sympathetic</text>
<text xml:space="preserve" text-anchor="start" x="1086.62" y="-315.25" font-family="Helvetica,sans-Serif" font-size="9.00" fill="#555555">meas:sympathetic</text>
</g>
<!-- http___example_org_ontology_teamMeasurement_sympathetic&#45;&gt;http___example_org_ontology_teamMeasurement_autonomic -->
<g id="edge20" class="edge">
<title>http___example_org_ontology_teamMeasurement_sympathetic&#45;&gt;http___example_org_ontology_teamMeasurement_autonomic</title>
<path fill="none" stroke="#666666" d="M1086.75,-306.81C1086.75,-306.81 1086.75,-282.76 1086.75,-282.76"/>
<polygon fill="none" stroke="#666666" points="1090.25,-282.76 1086.75,-272.76 1083.25,-282.76 1090.25,-282.76"/>
</g>
<!-- http___example_org_ontology_teamMeasurement_cardiovascular -->
<g id="node22" class="node">
<title>http___example_org_ontology_teamMeasurement_cardiovascular</title>
<path fill="#e8f8f7" stroke="#4ecdc4" d="M1102,-424.5C1102,-424.5 1010.75,-424.5 1010.75,-424.5 1004.75,-424.5 998.75,-418.5 998.75,-412.5 998.75,-412.5 998.75,-395.75 998.75,-395.75 998.75,-389.75 1004.75,-383.75 1010.75,-383.75 1010.75,-383.75 1102,-383.75 1102,-383.75 1108,-383.75 1114,-389.75 1114,-395.75 1114,-395.75 1114,-412.5 1114,-412.5 1114,-418.5 1108,-424.5 1102,-424.5"/>
<text xml:space="preserve" text-anchor="start" x="1008.75" y="-406.2" font-family="Helvetica,sans-Serif" font-weight="bold" font-size="14.00">cardiovascular</text>
<text xml:space="preserve" text-anchor="start" x="1014" y="-392" font-family="Helvetica,sans-Serif" font-size="9.00" fill="#555555">meas:cardiovascular</text>
</g>
<!-- http___example_org_ontology_teamMeasurement_cardiovascular&#45;&gt;http___example_org_ontology_teamMeasurement_sympathetic -->
<g id="edge21" class="edge">
<title>http___example_org_ontology_teamMeasurement_cardiovascular&#45;&gt;http___example_org_ontology_teamMeasurement_sympathetic</title>
<path fill="none" stroke="#666666" d="M1093.81,-383.56C1093.81,-383.56 1093.81,-359.51 1093.81,-359.51"/>
<polygon fill="none" stroke="#666666" points="1097.31,-359.51 1093.81,-349.51 1090.31,-359.51 1097.31,-359.51"/>
</g>
<!-- http___example_org_ontology_teamMeasurement_electrodermal -->
<g id="node23" class="node">
<title>http___example_org_ontology_teamMeasurement_electrodermal</title>
<path fill="#e8f8f7" stroke="#4ecdc4" d="M1233,-424.5C1233,-424.5 1147.75,-424.5 1147.75,-424.5 1141.75,-424.5 1135.75,-418.5 1135.75,-412.5 1135.75,-412.5 1135.75,-395.75 1135.75,-395.75 1135.75,-389.75 1141.75,-383.75 1147.75,-383.75 1147.75,-383.75 1233,-383.75 1233,-383.75 1239,-383.75 1245,-389.75 1245,-395.75 1245,-395.75 1245,-412.5 1245,-412.5 1245,-418.5 1239,-424.5 1233,-424.5"/>
<text xml:space="preserve" text-anchor="start" x="1145.75" y="-406.2" font-family="Helvetica,sans-Serif" font-weight="bold" font-size="14.00">electrodermal</text>
<text xml:space="preserve" text-anchor="start" x="1149.88" y="-392" font-family="Helvetica,sans-Serif" font-size="9.00" fill="#555555">meas:electrodermal</text>
</g>
<!-- http___example_org_ontology_teamMeasurement_electrodermal&#45;&gt;http___example_org_ontology_teamMeasurement_sympathetic -->
<g id="edge22" class="edge">
<title>http___example_org_ontology_teamMeasurement_electrodermal&#45;&gt;http___example_org_ontology_teamMeasurement_sympathetic</title>
<path fill="none" stroke="#666666" d="M1154.44,-383.56C1154.44,-383.56 1154.44,-359.51 1154.44,-359.51"/>
<polygon fill="none" stroke="#666666" points="1157.94,-359.51 1154.44,-349.51 1150.94,-359.51 1157.94,-359.51"/>
</g>
</g>
</svg>
