<?xml version="1.0" encoding="UTF-8" standalone="no"?>
<!DOCTYPE svg PUBLIC "-//W3C//DTD SVG 1.1//EN"
 "http://www.w3.org/Graphics/SVG/1.1/DTD/svg11.dtd">
<!-- Generated by graphviz version 14.1.5 (20260411.2331)
 -->
<!-- Title: hierarchy_levelOfAnalysis Pages: 1 -->
<svg width="380pt" height="149pt"
 viewBox="0.00 0.00 380.00 149.00" xmlns="http://www.w3.org/2000/svg" xmlns:xlink="http://www.w3.org/1999/xlink">
<g id="graph0" class="graph" transform="scale(1 1) rotate(0) translate(4 144.5)">
<title>hierarchy_levelOfAnalysis</title>
<polygon fill="white" stroke="none" points="-4,4 -4,-144.5 375.75,-144.5 375.75,4 -4,4"/>
<text xml:space="preserve" text-anchor="middle" x="185.88" y="-123.2" font-family="Helvetica,sans-Serif" font-size="14.00">Level of analysis hierarchy</text>
<!-- http___example_org_ontology_teamMeasurement_levelOfAnalysis -->
<g id="node1" class="node">
<title>http___example_org_ontology_teamMeasurement_levelOfAnalysis</title>
<path fill="#e8f8f7" stroke="#4ecdc4" d="M241.88,-40.75C241.88,-40.75 144.62,-40.75 144.62,-40.75 138.62,-40.75 132.62,-34.75 132.62,-28.75 132.62,-28.75 132.62,-12 132.62,-12 132.62,-6 138.62,0 144.62,0 144.62,0 241.88,0 241.88,0 247.88,0 253.88,-6 253.88,-12 253.88,-12 253.88,-28.75 253.88,-28.75 253.88,-34.75 247.88,-40.75 241.88,-40.75"/>
<text xml:space="preserve" text-anchor="start" x="142.62" y="-22.45" font-family="Helvetica,sans-Serif" font-weight="bold" font-size="14.00">levelOfAnalysis</text>
<text xml:space="preserve" text-anchor="start" x="149.38" y="-8.25" font-family="Helvetica,sans-Serif" font-size="9.00" fill="#555555">meas:levelOfAnalysis</text>
</g>
<!-- http___example_org_ontology_teamMeasurement_crossLevel -->
<g id="node2" class="node">
<title>http___example_org_ontology_teamMeasurement_crossLevel</title>
<path fill="#e8f8f7" stroke="#4ecdc4" d="M78.5,-117.5C78.5,-117.5 12,-117.5 12,-117.5 6,-117.5 0,-111.5 0,-105.5 0,-105.5 0,-88.75 0,-88.75 0,-82.75 6,-76.75 12,-76.75 12,-76.75 78.5,-76.75 78.5,-76.75 84.5,-76.75 90.5,-82.75 90.5,-88.75 90.5,-88.75 90.5,-105.5 90.5,-105.5 90.5,-111.5 84.5,-117.5 78.5,-117.5"/>
<text xml:space="preserve" text-anchor="start" x="10" y="-99.2" font-family="Helvetica,sans-Serif" font-weight="bold" font-size="14.00">crossLevel</text>
<text xml:space="preserve" text-anchor="start" x="10.75" y="-85" font-family="Helvetica,sans-Serif" font-size="9.00" fill="#555555">meas:crossLevel</text>
</g>
<!-- http___example_org_ontology_teamMeasurement_crossLevel&#45;&gt;http___example_org_ontology_teamMeasurement_levelOfAnalysis -->
<g id="edge1" class="edge">
<title>http___example_org_ontology_teamMeasurement_crossLevel&#45;&gt;http___example_org_ontology_teamMeasurement_levelOfAnalysis</title>
<path fill="none" stroke="#666666" d="M45.25,-76.46C45.25,-53.61 45.25,-20 45.25,-20 45.25,-20 120.68,-20 120.68,-20"/>
<polygon fill="none" stroke="#666666" points="120.68,-23.5 130.68,-20 120.68,-16.5 120.68,-23.5"/>
</g>
<!-- http___example_org_ontology_teamMeasurement_dyad -->
<g id="node3" class="node">
<title>http___example_org_ontology_teamMeasurement_dyad</title>
<path fill="#e8f8f7" stroke="#4ecdc4" d="M165.75,-117.5C165.75,-117.5 124.75,-117.5 124.75,-117.5 118.75,-117.5 112.75,-111.5 112.75,-105.5 112.75,-105.5 112.75,-88.75 112.75,-88.75 112.75,-82.75 118.75,-76.75 124.75,-76.75 124.75,-76.75 165.75,-76.75 165.75,-76.75 171.75,-76.75 177.75,-82.75 177.75,-88.75 177.75,-88.75 177.75,-105.5 177.75,-105.5 177.75,-111.5 171.75,-117.5 165.75,-117.5"/>
<text xml:space="preserve" text-anchor="start" x="129.5" y="-99.2" font-family="Helvetica,sans-Serif" font-weight="bold" font-size="14.00">dyad</text>
<text xml:space="preserve" text-anchor="start" x="122.75" y="-85" font-family="Helvetica,sans-Serif" font-size="9.00" fill="#555555">meas:dyad</text>
</g>
<!-- http___example_org_ontology_teamMeasurement_dyad&#45;&gt;http___example_org_ontology_teamMeasurement_levelOfAnalysis -->
<g id="edge2" class="edge">
<title>http___example_org_ontology_teamMeasurement_dyad&#45;&gt;http___example_org_ontology_teamMeasurement_levelOfAnalysis</title>
<path fill="none" stroke="#666666" d="M155.19,-76.56C155.19,-76.56 155.19,-52.51 155.19,-52.51"/>
<polygon fill="none" stroke="#666666" points="158.69,-52.51 155.19,-42.51 151.69,-52.51 158.69,-52.51"/>
</g>
<!-- http___example_org_ontology_teamMeasurement_individual -->
<g id="node4" class="node">
<title>http___example_org_ontology_teamMeasurement_individual</title>
<path fill="#e8f8f7" stroke="#4ecdc4" d="M272.5,-117.5C272.5,-117.5 212,-117.5 212,-117.5 206,-117.5 200,-111.5 200,-105.5 200,-105.5 200,-88.75 200,-88.75 200,-82.75 206,-76.75 212,-76.75 212,-76.75 272.5,-76.75 272.5,-76.75 278.5,-76.75 284.5,-82.75 284.5,-88.75 284.5,-88.75 284.5,-105.5 284.5,-105.5 284.5,-111.5 278.5,-117.5 272.5,-117.5"/>
<text xml:space="preserve" text-anchor="start" x="210.75" y="-99.2" font-family="Helvetica,sans-Serif" font-weight="bold" font-size="14.00">individual</text>
<text xml:space="preserve" text-anchor="start" x="210" y="-85" font-family="Helvetica,sans-Serif" font-size="9.00" fill="#555555">meas:individual</text>
</g>
<!-- http___example_org_ontology_teamMeasurement_individual&#45;&gt;http___example_org_ontology_teamMeasurement_levelOfAnalysis -->
<g id="edge3" class="edge">
<title>http___example_org_ontology_teamMeasurement_individual&#45;&gt;http___example_org_ontology_teamMeasurement_levelOfAnalysis</title>
<path fill="none" stroke="#666666" d="M226.94,-76.56C226.94,-76.56 226.94,-52.51 226.94,-52.51"/>
<polygon fill="none" stroke="#666666" points="230.44,-52.51 226.94,-42.51 223.44,-52.51 230.44,-52.51"/>
</g>
<!-- http___example_org_ontology_teamMeasurement_team -->
<g id="node5" class="node">
<title>http___example_org_ontology_teamMeasurement_team</title>
<path fill="#e8f8f7" stroke="#4ecdc4" d="M359.75,-117.5C359.75,-117.5 318.75,-117.5 318.75,-117.5 312.75,-117.5 306.75,-111.5 306.75,-105.5 306.75,-105.5 306.75,-88.75 306.75,-88.75 306.75,-82.75 312.75,-76.75 318.75,-76.75 318.75,-76.75 359.75,-76.75 359.75,-76.75 365.75,-76.75 371.75,-82.75 371.75,-88.75 371.75,-88.75 371.75,-105.5 371.75,-105.5 371.75,-111.5 365.75,-117.5 359.75,-117.5"/>
<text xml:space="preserve" text-anchor="start" x="323.12" y="-99.2" font-family="Helvetica,sans-Serif" font-weight="bold" font-size="14.00">team</text>
<text xml:space="preserve" text-anchor="start" x="316.75" y="-85" font-family="Helvetica,sans-Serif" font-size="9.00" fill="#555555">meas:team</text>
</g>
<!-- http___example_org_ontology_teamMeasurement_team&#45;&gt;http___example_org_ontology_teamMeasurement_levelOfAnalysis -->
<g id="edge4" class="edge">
<title>http___example_org_ontology_teamMeasurement_team&#45;&gt;http___example_org_ontology_teamMeasurement_levelOfAnalysis</title>
<path fill="none" stroke="#666666" d="M339.25,-76.46C339.25,-53.61 339.25,-20 339.25,-20 339.25,-20 265.83,-20 265.83,-20"/>
<polygon fill="none" stroke="#666666" points="265.83,-16.5 255.83,-20 265.83,-23.5 265.83,-16.5"/>
</g>
</g>
</svg>
