<?xml version="1.0" encoding="UTF-8" standalone="no"?>
<!DOCTYPE svg PUBLIC "-//W3C//DTD SVG 1.1//EN"
 "http://www.w3.org/Graphics/SVG/1.1/DTD/svg11.dtd">
<!-- Generated by graphviz version 14.1.5 (20260411.2331)
 -->
<!-- Title: hierarchy_Construct Pages: 1 -->
<svg width="2218pt" height="149pt"
 viewBox="0.00 0.00 2218.00 149.00" xmlns="http://www.w3.org/2000/svg" xmlns:xlink="http://www.w3.org/1999/xlink">
<g id="graph0" class="graph" transform="scale(1 1) rotate(0) translate(4 144.5)">
<title>hierarchy_Construct</title>
<polygon fill="white" stroke="none" points="-4,4 -4,-144.5 2213.62,-144.5 2213.62,4 -4,4"/>
<text xml:space="preserve" text-anchor="middle" x="1104.81" y="-123.2" font-family="Helvetica,sans-Serif" font-size="14.00">Construct hierarchy</text>
<!-- http___example_org_ontology_teamMeasurement_Construct -->
<g id="node1" class="node">
<title>http___example_org_ontology_teamMeasurement_Construct</title>
<path fill="#e8f8f7" stroke="#4ecdc4" d="M1131,-40.75C1131,-40.75 1071.25,-40.75 1071.25,-40.75 1065.25,-40.75 1059.25,-34.75 1059.25,-28.75 1059.25,-28.75 1059.25,-12 1059.25,-12 1059.25,-6 1065.25,0 1071.25,0 1071.25,0 1131,0 1131,0 1137,0 1143,-6 1143,-12 1143,-12 1143,-28.75 1143,-28.75 1143,-34.75 1137,-40.75 1131,-40.75"/>
<text xml:space="preserve" text-anchor="start" x="1069.25" y="-22.45" font-family="Helvetica,sans-Serif" font-weight="bold" font-size="14.00">Construct</text>
<text xml:space="preserve" text-anchor="start" x="1069.25" y="-8.25" font-family="Helvetica,sans-Serif" font-size="9.00" fill="#555555">meas:Construct</text>
</g>
<!-- http___example_org_ontology_teamMeasurement_cognition -->
<g id="node2" class="node">
<title>http___example_org_ontology_teamMeasurement_cognition</title>
<path fill="#e8f8f7" stroke="#4ecdc4" d="M70.25,-117.5C70.25,-117.5 12,-117.5 12,-117.5 6,-117.5 0,-111.5 0,-105.5 0,-105.5 0,-88.75 0,-88.75 0,-82.75 6,-76.75 12,-76.75 12,-76.75 70.25,-76.75 70.25,-76.75 76.25,-76.75 82.25,-82.75 82.25,-88.75 82.25,-88.75 82.25,-105.5 82.25,-105.5 82.25,-111.5 76.25,-117.5 70.25,-117.5"/>
<text xml:space="preserve" text-anchor="start" x="10.75" y="-99.2" font-family="Helvetica,sans-Serif" font-weight="bold" font-size="14.00">cognition</text>
<text xml:space="preserve" text-anchor="start" x="10" y="-85" font-family="Helvetica,sans-Serif" font-size="9.00" fill="#555555">meas:cognition</text>
</g>
<!-- http___example_org_ontology_teamMeasurement_cognition&#45;&gt;http___example_org_ontology_teamMeasurement_Construct -->
<g id="edge1" class="edge">
<title>http___example_org_ontology_teamMeasurement_cognition&#45;&gt;http___example_org_ontology_teamMeasurement_Construct</title>
<path fill="none" stroke="#666666" d="M41.12,-76.68C41.12,-49.54 41.12,-5 41.12,-5 41.12,-5 1047.4,-5 1047.4,-5"/>
<polygon fill="none" stroke="#666666" points="1047.4,-8.5 1057.4,-5 1047.4,-1.5 1047.4,-8.5"/>
</g>
<!-- http___example_org_ontology_teamMeasurement_cognitiveLoad -->
<g id="node3" class="node">
<title>http___example_org_ontology_teamMeasurement_cognitiveLoad</title>
<path fill="#e8f8f7" stroke="#4ecdc4" d="M203.88,-117.5C203.88,-117.5 116.38,-117.5 116.38,-117.5 110.38,-117.5 104.38,-111.5 104.38,-105.5 104.38,-105.5 104.38,-88.75 104.38,-88.75 104.38,-82.75 110.38,-76.75 116.38,-76.75 116.38,-76.75 203.88,-76.75 203.88,-76.75 209.88,-76.75 215.88,-82.75 215.88,-88.75 215.88,-88.75 215.88,-105.5 215.88,-105.5 215.88,-111.5 209.88,-117.5 203.88,-117.5"/>
<text xml:space="preserve" text-anchor="start" x="114.38" y="-99.2" font-family="Helvetica,sans-Serif" font-weight="bold" font-size="14.00">cognitiveLoad</text>
<text xml:space="preserve" text-anchor="start" x="118.88" y="-85" font-family="Helvetica,sans-Serif" font-size="9.00" fill="#555555">meas:cognitiveLoad</text>
</g>
<!-- http___example_org_ontology_teamMeasurement_cognitiveLoad&#45;&gt;http___example_org_ontology_teamMeasurement_Construct -->
<g id="edge2" class="edge">
<title>http___example_org_ontology_teamMeasurement_cognitiveLoad&#45;&gt;http___example_org_ontology_teamMeasurement_Construct</title>
<path fill="none" stroke="#666666" d="M160.12,-76.69C160.12,-50.65 160.12,-9 160.12,-9 160.12,-9 1047.35,-9 1047.35,-9"/>
<polygon fill="none" stroke="#666666" points="1047.35,-12.5 1057.35,-9 1047.35,-5.5 1047.35,-12.5"/>
</g>
<!-- http___example_org_ontology_teamMeasurement_cohesion -->
<g id="node4" class="node">
<title>http___example_org_ontology_teamMeasurement_cohesion</title>
<path fill="#e8f8f7" stroke="#4ecdc4" d="M308.25,-117.5C308.25,-117.5 250,-117.5 250,-117.5 244,-117.5 238,-111.5 238,-105.5 238,-105.5 238,-88.75 238,-88.75 238,-82.75 244,-76.75 250,-76.75 250,-76.75 308.25,-76.75 308.25,-76.75 314.25,-76.75 320.25,-82.75 320.25,-88.75 320.25,-88.75 320.25,-105.5 320.25,-105.5 320.25,-111.5 314.25,-117.5 308.25,-117.5"/>
<text xml:space="preserve" text-anchor="start" x="249.5" y="-99.2" font-family="Helvetica,sans-Serif" font-weight="bold" font-size="14.00">cohesion</text>
<text xml:space="preserve" text-anchor="start" x="248" y="-85" font-family="Helvetica,sans-Serif" font-size="9.00" fill="#555555">meas:cohesion</text>
</g>
<!-- http___example_org_ontology_teamMeasurement_cohesion&#45;&gt;http___example_org_ontology_teamMeasurement_Construct -->
<g id="edge3" class="edge">
<title>http___example_org_ontology_teamMeasurement_cohesion&#45;&gt;http___example_org_ontology_teamMeasurement_Construct</title>
<path fill="none" stroke="#666666" d="M279.12,-76.58C279.12,-51.96 279.12,-14 279.12,-14 279.12,-14 1047.43,-14 1047.43,-14"/>
<polygon fill="none" stroke="#666666" points="1047.43,-17.5 1057.43,-14 1047.43,-10.5 1047.43,-17.5"/>
</g>
<!-- http___example_org_ontology_teamMeasurement_conflict -->
<g id="node5" class="node">
<title>http___example_org_ontology_teamMeasurement_conflict</title>
<path fill="#e8f8f7" stroke="#4ecdc4" d="M403.75,-117.5C403.75,-117.5 354.5,-117.5 354.5,-117.5 348.5,-117.5 342.5,-111.5 342.5,-105.5 342.5,-105.5 342.5,-88.75 342.5,-88.75 342.5,-82.75 348.5,-76.75 354.5,-76.75 354.5,-76.75 403.75,-76.75 403.75,-76.75 409.75,-76.75 415.75,-82.75 415.75,-88.75 415.75,-88.75 415.75,-105.5 415.75,-105.5 415.75,-111.5 409.75,-117.5 403.75,-117.5"/>
<text xml:space="preserve" text-anchor="start" x="355.12" y="-99.2" font-family="Helvetica,sans-Serif" font-weight="bold" font-size="14.00">conflict</text>
<text xml:space="preserve" text-anchor="start" x="352.5" y="-85" font-family="Helvetica,sans-Serif" font-size="9.00" fill="#555555">meas:conflict</text>
</g>
<!-- http___example_org_ontology_teamMeasurement_conflict&#45;&gt;http___example_org_ontology_teamMeasurement_Construct -->
<g id="edge4" class="edge">
<title>http___example_org_ontology_teamMeasurement_conflict&#45;&gt;http___example_org_ontology_teamMeasurement_Construct</title>
<path fill="none" stroke="#666666" d="M379.12,-76.34C379.12,-52.89 379.12,-18 379.12,-18 379.12,-18 1047.41,-18 1047.41,-18"/>
<polygon fill="none" stroke="#666666" points="1047.41,-21.5 1057.41,-18 1047.41,-14.5 1047.41,-21.5"/>
</g>
<!-- http___example_org_ontology_teamMeasurement_coordination -->
<g id="node6" class="node">
<title>http___example_org_ontology_teamMeasurement_coordination</title>
<path fill="#e8f8f7" stroke="#4ecdc4" d="M528,-117.5C528,-117.5 450.25,-117.5 450.25,-117.5 444.25,-117.5 438.25,-111.5 438.25,-105.5 438.25,-105.5 438.25,-88.75 438.25,-88.75 438.25,-82.75 444.25,-76.75 450.25,-76.75 450.25,-76.75 528,-76.75 528,-76.75 534,-76.75 540,-82.75 540,-88.75 540,-88.75 540,-105.5 540,-105.5 540,-111.5 534,-117.5 528,-117.5"/>
<text xml:space="preserve" text-anchor="start" x="448.25" y="-99.2" font-family="Helvetica,sans-Serif" font-weight="bold" font-size="14.00">coordination</text>
<text xml:space="preserve" text-anchor="start" x="451.25" y="-85" font-family="Helvetica,sans-Serif" font-size="9.00" fill="#555555">meas:coordination</text>
</g>
<!-- http___example_org_ontology_teamMeasurement_coordination&#45;&gt;http___example_org_ontology_teamMeasurement_Construct -->
<g id="edge5" class="edge">
<title>http___example_org_ontology_teamMeasurement_coordination&#45;&gt;http___example_org_ontology_teamMeasurement_Construct</title>
<path fill="none" stroke="#666666" d="M489.12,-76.48C489.12,-54.54 489.12,-23 489.12,-23 489.12,-23 1047.55,-23 1047.55,-23"/>
<polygon fill="none" stroke="#666666" points="1047.55,-26.5 1057.55,-23 1047.55,-19.5 1047.55,-26.5"/>
</g>
<!-- http___example_org_ontology_teamMeasurement_decisionMaking -->
<g id="node7" class="node">
<title>http___example_org_ontology_teamMeasurement_decisionMaking</title>
<path fill="#e8f8f7" stroke="#4ecdc4" d="M672.12,-117.5C672.12,-117.5 574.12,-117.5 574.12,-117.5 568.12,-117.5 562.12,-111.5 562.12,-105.5 562.12,-105.5 562.12,-88.75 562.12,-88.75 562.12,-82.75 568.12,-76.75 574.12,-76.75 574.12,-76.75 672.12,-76.75 672.12,-76.75 678.12,-76.75 684.12,-82.75 684.12,-88.75 684.12,-88.75 684.12,-105.5 684.12,-105.5 684.12,-111.5 678.12,-117.5 672.12,-117.5"/>
<text xml:space="preserve" text-anchor="start" x="572.12" y="-99.2" font-family="Helvetica,sans-Serif" font-weight="bold" font-size="14.00">decisionMaking</text>
<text xml:space="preserve" text-anchor="start" x="578.5" y="-85" font-family="Helvetica,sans-Serif" font-size="9.00" fill="#555555">meas:decisionMaking</text>
</g>
<!-- http___example_org_ontology_teamMeasurement_decisionMaking&#45;&gt;http___example_org_ontology_teamMeasurement_Construct -->
<g id="edge6" class="edge">
<title>http___example_org_ontology_teamMeasurement_decisionMaking&#45;&gt;http___example_org_ontology_teamMeasurement_Construct</title>
<path fill="none" stroke="#666666" d="M623.12,-76.46C623.12,-55.78 623.12,-27 623.12,-27 623.12,-27 1047.61,-27 1047.61,-27"/>
<polygon fill="none" stroke="#666666" points="1047.61,-30.5 1057.61,-27 1047.61,-23.5 1047.61,-30.5"/>
</g>
<!-- http___example_org_ontology_teamMeasurement_engagementCommitment -->
<g id="node8" class="node">
<title>http___example_org_ontology_teamMeasurement_engagementCommitment</title>
<path fill="#e8f8f7" stroke="#4ecdc4" d="M879.62,-117.5C879.62,-117.5 718.62,-117.5 718.62,-117.5 712.62,-117.5 706.62,-111.5 706.62,-105.5 706.62,-105.5 706.62,-88.75 706.62,-88.75 706.62,-82.75 712.62,-76.75 718.62,-76.75 718.62,-76.75 879.62,-76.75 879.62,-76.75 885.62,-76.75 891.62,-82.75 891.62,-88.75 891.62,-88.75 891.62,-105.5 891.62,-105.5 891.62,-111.5 885.62,-117.5 879.62,-117.5"/>
<text xml:space="preserve" text-anchor="start" x="716.62" y="-99.2" font-family="Helvetica,sans-Serif" font-weight="bold" font-size="14.00">engagementCommitment</text>
<text xml:space="preserve" text-anchor="start" x="735" y="-85" font-family="Helvetica,sans-Serif" font-size="9.00" fill="#555555">meas:engagementCommitment</text>
</g>
<!-- http___example_org_ontology_teamMeasurement_engagementCommitment&#45;&gt;http___example_org_ontology_teamMeasurement_Construct -->
<g id="edge7" class="edge">
<title>http___example_org_ontology_teamMeasurement_engagementCommitment&#45;&gt;http___example_org_ontology_teamMeasurement_Construct</title>
<path fill="none" stroke="#666666" d="M799.12,-76.52C799.12,-57.44 799.12,-32 799.12,-32 799.12,-32 1047.3,-32 1047.3,-32"/>
<polygon fill="none" stroke="#666666" points="1047.3,-35.5 1057.3,-32 1047.3,-28.5 1047.3,-35.5"/>
</g>
<!-- http___example_org_ontology_teamMeasurement_problemSolving -->
<g id="node9" class="node">
<title>http___example_org_ontology_teamMeasurement_problemSolving</title>
<path fill="#e8f8f7" stroke="#4ecdc4" d="M1024.5,-117.5C1024.5,-117.5 925.75,-117.5 925.75,-117.5 919.75,-117.5 913.75,-111.5 913.75,-105.5 913.75,-105.5 913.75,-88.75 913.75,-88.75 913.75,-82.75 919.75,-76.75 925.75,-76.75 925.75,-76.75 1024.5,-76.75 1024.5,-76.75 1030.5,-76.75 1036.5,-82.75 1036.5,-88.75 1036.5,-88.75 1036.5,-105.5 1036.5,-105.5 1036.5,-111.5 1030.5,-117.5 1024.5,-117.5"/>
<text xml:space="preserve" text-anchor="start" x="923.75" y="-99.2" font-family="Helvetica,sans-Serif" font-weight="bold" font-size="14.00">problemSolving</text>
<text xml:space="preserve" text-anchor="start" x="930.5" y="-85" font-family="Helvetica,sans-Serif" font-size="9.00" fill="#555555">meas:problemSolving</text>
</g>
<!-- http___example_org_ontology_teamMeasurement_problemSolving&#45;&gt;http___example_org_ontology_teamMeasurement_Construct -->
<g id="edge8" class="edge">
<title>http___example_org_ontology_teamMeasurement_problemSolving&#45;&gt;http___example_org_ontology_teamMeasurement_Construct</title>
<path fill="none" stroke="#666666" d="M975.12,-76.43C975.12,-58.7 975.12,-36 975.12,-36 975.12,-36 1047.3,-36 1047.3,-36"/>
<polygon fill="none" stroke="#666666" points="1047.3,-39.5 1057.3,-36 1047.3,-32.5 1047.3,-39.5"/>
</g>
<!-- http___example_org_ontology_teamMeasurement_resilience -->
<g id="node10" class="node">
<title>http___example_org_ontology_teamMeasurement_resilience</title>
<path fill="#e8f8f7" stroke="#4ecdc4" d="M1131.38,-117.5C1131.38,-117.5 1070.88,-117.5 1070.88,-117.5 1064.88,-117.5 1058.88,-111.5 1058.88,-105.5 1058.88,-105.5 1058.88,-88.75 1058.88,-88.75 1058.88,-82.75 1064.88,-76.75 1070.88,-76.75 1070.88,-76.75 1131.38,-76.75 1131.38,-76.75 1137.38,-76.75 1143.38,-82.75 1143.38,-88.75 1143.38,-88.75 1143.38,-105.5 1143.38,-105.5 1143.38,-111.5 1137.38,-117.5 1131.38,-117.5"/>
<text xml:space="preserve" text-anchor="start" x="1070" y="-99.2" font-family="Helvetica,sans-Serif" font-weight="bold" font-size="14.00">resilience</text>
<text xml:space="preserve" text-anchor="start" x="1068.88" y="-85" font-family="Helvetica,sans-Serif" font-size="9.00" fill="#555555">meas:resilience</text>
</g>
<!-- http___example_org_ontology_teamMeasurement_resilience&#45;&gt;http___example_org_ontology_teamMeasurement_Construct -->
<g id="edge9" class="edge">
<title>http___example_org_ontology_teamMeasurement_resilience&#45;&gt;http___example_org_ontology_teamMeasurement_Construct</title>
<path fill="none" stroke="#666666" d="M1101.12,-76.56C1101.12,-76.56 1101.12,-52.51 1101.12,-52.51"/>
<polygon fill="none" stroke="#666666" points="1104.63,-52.51 1101.13,-42.51 1097.63,-52.51 1104.63,-52.51"/>
</g>
<!-- http___example_org_ontology_teamMeasurement_satisfaction -->
<g id="node11" class="node">
<title>http___example_org_ontology_teamMeasurement_satisfaction</title>
<path fill="#e8f8f7" stroke="#4ecdc4" d="M1248.62,-117.5C1248.62,-117.5 1177.62,-117.5 1177.62,-117.5 1171.62,-117.5 1165.62,-111.5 1165.62,-105.5 1165.62,-105.5 1165.62,-88.75 1165.62,-88.75 1165.62,-82.75 1171.62,-76.75 1177.62,-76.75 1177.62,-76.75 1248.62,-76.75 1248.62,-76.75 1254.62,-76.75 1260.62,-82.75 1260.62,-88.75 1260.62,-88.75 1260.62,-105.5 1260.62,-105.5 1260.62,-111.5 1254.62,-117.5 1248.62,-117.5"/>
<text xml:space="preserve" text-anchor="start" x="1175.62" y="-99.2" font-family="Helvetica,sans-Serif" font-weight="bold" font-size="14.00">satisfaction</text>
<text xml:space="preserve" text-anchor="start" x="1177.88" y="-85" font-family="Helvetica,sans-Serif" font-size="9.00" fill="#555555">meas:satisfaction</text>
</g>
<!-- http___example_org_ontology_teamMeasurement_satisfaction&#45;&gt;http___example_org_ontology_teamMeasurement_Construct -->
<g id="edge10" class="edge">
<title>http___example_org_ontology_teamMeasurement_satisfaction&#45;&gt;http___example_org_ontology_teamMeasurement_Construct</title>
<path fill="none" stroke="#666666" d="M1213.12,-76.43C1213.12,-58.7 1213.12,-36 1213.12,-36 1213.12,-36 1154.98,-36 1154.98,-36"/>
<polygon fill="none" stroke="#666666" points="1154.98,-32.5 1144.98,-36 1154.98,-39.5 1154.98,-32.5"/>
</g>
<!-- http___example_org_ontology_teamMeasurement_sharedMentalModel -->
<g id="node12" class="node">
<title>http___example_org_ontology_teamMeasurement_sharedMentalModel</title>
<path fill="#e8f8f7" stroke="#4ecdc4" d="M1417.88,-117.5C1417.88,-117.5 1294.38,-117.5 1294.38,-117.5 1288.38,-117.5 1282.38,-111.5 1282.38,-105.5 1282.38,-105.5 1282.38,-88.75 1282.38,-88.75 1282.38,-82.75 1288.38,-76.75 1294.38,-76.75 1294.38,-76.75 1417.88,-76.75 1417.88,-76.75 1423.88,-76.75 1429.88,-82.75 1429.88,-88.75 1429.88,-88.75 1429.88,-105.5 1429.88,-105.5 1429.88,-111.5 1423.88,-117.5 1417.88,-117.5"/>
<text xml:space="preserve" text-anchor="start" x="1292.38" y="-99.2" font-family="Helvetica,sans-Serif" font-weight="bold" font-size="14.00">sharedMentalModel</text>
<text xml:space="preserve" text-anchor="start" x="1302.88" y="-85" font-family="Helvetica,sans-Serif" font-size="9.00" fill="#555555">meas:sharedMentalModel</text>
</g>
<!-- http___example_org_ontology_teamMeasurement_sharedMentalModel&#45;&gt;http___example_org_ontology_teamMeasurement_Construct -->
<g id="edge11" class="edge">
<title>http___example_org_ontology_teamMeasurement_sharedMentalModel&#45;&gt;http___example_org_ontology_teamMeasurement_Construct</title>
<path fill="none" stroke="#666666" d="M1356.12,-76.52C1356.12,-57.44 1356.12,-32 1356.12,-32 1356.12,-32 1154.75,-32 1154.75,-32"/>
<polygon fill="none" stroke="#666666" points="1154.75,-28.5 1144.75,-32 1154.75,-35.5 1154.75,-28.5"/>
</g>
<!-- http___example_org_ontology_teamMeasurement_situationalAwareness -->
<g id="node13" class="node">
<title>http___example_org_ontology_teamMeasurement_situationalAwareness</title>
<path fill="#e8f8f7" stroke="#4ecdc4" d="M1598.5,-117.5C1598.5,-117.5 1463.75,-117.5 1463.75,-117.5 1457.75,-117.5 1451.75,-111.5 1451.75,-105.5 1451.75,-105.5 1451.75,-88.75 1451.75,-88.75 1451.75,-82.75 1457.75,-76.75 1463.75,-76.75 1463.75,-76.75 1598.5,-76.75 1598.5,-76.75 1604.5,-76.75 1610.5,-82.75 1610.5,-88.75 1610.5,-88.75 1610.5,-105.5 1610.5,-105.5 1610.5,-111.5 1604.5,-117.5 1598.5,-117.5"/>
<text xml:space="preserve" text-anchor="start" x="1461.75" y="-99.2" font-family="Helvetica,sans-Serif" font-weight="bold" font-size="14.00">situationalAwareness</text>
<text xml:space="preserve" text-anchor="start" x="1474.88" y="-85" font-family="Helvetica,sans-Serif" font-size="9.00" fill="#555555">meas:situationalAwareness</text>
</g>
<!-- http___example_org_ontology_teamMeasurement_situationalAwareness&#45;&gt;http___example_org_ontology_teamMeasurement_Construct -->
<g id="edge12" class="edge">
<title>http___example_org_ontology_teamMeasurement_situationalAwareness&#45;&gt;http___example_org_ontology_teamMeasurement_Construct</title>
<path fill="none" stroke="#666666" d="M1531.12,-76.46C1531.12,-55.78 1531.12,-27 1531.12,-27 1531.12,-27 1154.65,-27 1154.65,-27"/>
<polygon fill="none" stroke="#666666" points="1154.65,-23.5 1144.65,-27 1154.65,-30.5 1154.65,-23.5"/>
</g>
<!-- http___example_org_ontology_teamMeasurement_stress -->
<g id="node14" class="node">
<title>http___example_org_ontology_teamMeasurement_stress</title>
<path fill="#e8f8f7" stroke="#4ecdc4" d="M1689.5,-117.5C1689.5,-117.5 1644.75,-117.5 1644.75,-117.5 1638.75,-117.5 1632.75,-111.5 1632.75,-105.5 1632.75,-105.5 1632.75,-88.75 1632.75,-88.75 1632.75,-82.75 1638.75,-76.75 1644.75,-76.75 1644.75,-76.75 1689.5,-76.75 1689.5,-76.75 1695.5,-76.75 1701.5,-82.75 1701.5,-88.75 1701.5,-88.75 1701.5,-105.5 1701.5,-105.5 1701.5,-111.5 1695.5,-117.5 1689.5,-117.5"/>
<text xml:space="preserve" text-anchor="start" x="1647.25" y="-99.2" font-family="Helvetica,sans-Serif" font-weight="bold" font-size="14.00">stress</text>
<text xml:space="preserve" text-anchor="start" x="1642.75" y="-85" font-family="Helvetica,sans-Serif" font-size="9.00" fill="#555555">meas:stress</text>
</g>
<!-- http___example_org_ontology_teamMeasurement_stress&#45;&gt;http___example_org_ontology_teamMeasurement_Construct -->
<g id="edge13" class="edge">
<title>http___example_org_ontology_teamMeasurement_stress&#45;&gt;http___example_org_ontology_teamMeasurement_Construct</title>
<path fill="none" stroke="#666666" d="M1667.12,-76.48C1667.12,-54.54 1667.12,-23 1667.12,-23 1667.12,-23 1154.72,-23 1154.72,-23"/>
<polygon fill="none" stroke="#666666" points="1154.72,-19.5 1144.72,-23 1154.72,-26.5 1154.72,-19.5"/>
</g>
<!-- http___example_org_ontology_teamMeasurement_taskType -->
<g id="node15" class="node">
<title>http___example_org_ontology_teamMeasurement_taskType</title>
<path fill="#e8f8f7" stroke="#4ecdc4" d="M1792.88,-117.5C1792.88,-117.5 1735.38,-117.5 1735.38,-117.5 1729.38,-117.5 1723.38,-111.5 1723.38,-105.5 1723.38,-105.5 1723.38,-88.75 1723.38,-88.75 1723.38,-82.75 1729.38,-76.75 1735.38,-76.75 1735.38,-76.75 1792.88,-76.75 1792.88,-76.75 1798.88,-76.75 1804.88,-82.75 1804.88,-88.75 1804.88,-88.75 1804.88,-105.5 1804.88,-105.5 1804.88,-111.5 1798.88,-117.5 1792.88,-117.5"/>
<text xml:space="preserve" text-anchor="start" x="1734.88" y="-99.2" font-family="Helvetica,sans-Serif" font-weight="bold" font-size="14.00">taskType</text>
<text xml:space="preserve" text-anchor="start" x="1733.38" y="-85" font-family="Helvetica,sans-Serif" font-size="9.00" fill="#555555">meas:taskType</text>
</g>
<!-- http___example_org_ontology_teamMeasurement_taskType&#45;&gt;http___example_org_ontology_teamMeasurement_Construct -->
<g id="edge14" class="edge">
<title>http___example_org_ontology_teamMeasurement_taskType&#45;&gt;http___example_org_ontology_teamMeasurement_Construct</title>
<path fill="none" stroke="#666666" d="M1764.12,-76.34C1764.12,-52.89 1764.12,-18 1764.12,-18 1764.12,-18 1154.87,-18 1154.87,-18"/>
<polygon fill="none" stroke="#666666" points="1154.87,-14.5 1144.87,-18 1154.87,-21.5 1154.87,-14.5"/>
</g>
<!-- http___example_org_ontology_teamMeasurement_teamFamiliarity -->
<g id="node16" class="node">
<title>http___example_org_ontology_teamMeasurement_teamFamiliarity</title>
<path fill="#e8f8f7" stroke="#4ecdc4" d="M1935.38,-117.5C1935.38,-117.5 1838.88,-117.5 1838.88,-117.5 1832.88,-117.5 1826.88,-111.5 1826.88,-105.5 1826.88,-105.5 1826.88,-88.75 1826.88,-88.75 1826.88,-82.75 1832.88,-76.75 1838.88,-76.75 1838.88,-76.75 1935.38,-76.75 1935.38,-76.75 1941.38,-76.75 1947.38,-82.75 1947.38,-88.75 1947.38,-88.75 1947.38,-105.5 1947.38,-105.5 1947.38,-111.5 1941.38,-117.5 1935.38,-117.5"/>
<text xml:space="preserve" text-anchor="start" x="1836.88" y="-99.2" font-family="Helvetica,sans-Serif" font-weight="bold" font-size="14.00">teamFamiliarity</text>
<text xml:space="preserve" text-anchor="start" x="1843.62" y="-85" font-family="Helvetica,sans-Serif" font-size="9.00" fill="#555555">meas:teamFamiliarity</text>
</g>
<!-- http___example_org_ontology_teamMeasurement_teamFamiliarity&#45;&gt;http___example_org_ontology_teamMeasurement_Construct -->
<g id="edge15" class="edge">
<title>http___example_org_ontology_teamMeasurement_teamFamiliarity&#45;&gt;http___example_org_ontology_teamMeasurement_Construct</title>
<path fill="none" stroke="#666666" d="M1887.12,-76.58C1887.12,-51.96 1887.12,-14 1887.12,-14 1887.12,-14 1154.9,-14 1154.9,-14"/>
<polygon fill="none" stroke="#666666" points="1154.9,-10.5 1144.9,-14 1154.9,-17.5 1154.9,-10.5"/>
</g>
<!-- http___example_org_ontology_teamMeasurement_teamPerformance -->
<g id="node17" class="node">
<title>http___example_org_ontology_teamMeasurement_teamPerformance</title>
<path fill="#e8f8f7" stroke="#4ecdc4" d="M2092.88,-117.5C2092.88,-117.5 1981.38,-117.5 1981.38,-117.5 1975.38,-117.5 1969.38,-111.5 1969.38,-105.5 1969.38,-105.5 1969.38,-88.75 1969.38,-88.75 1969.38,-82.75 1975.38,-76.75 1981.38,-76.75 1981.38,-76.75 2092.88,-76.75 2092.88,-76.75 2098.88,-76.75 2104.88,-82.75 2104.88,-88.75 2104.88,-88.75 2104.88,-105.5 2104.88,-105.5 2104.88,-111.5 2098.88,-117.5 2092.88,-117.5"/>
<text xml:space="preserve" text-anchor="start" x="1979.38" y="-99.2" font-family="Helvetica,sans-Serif" font-weight="bold" font-size="14.00">teamPerformance</text>
<text xml:space="preserve" text-anchor="start" x="1988.38" y="-85" font-family="Helvetica,sans-Serif" font-size="9.00" fill="#555555">meas:teamPerformance</text>
</g>
<!-- http___example_org_ontology_teamMeasurement_teamPerformance&#45;&gt;http___example_org_ontology_teamMeasurement_Construct -->
<g id="edge16" class="edge">
<title>http___example_org_ontology_teamMeasurement_teamPerformance&#45;&gt;http___example_org_ontology_teamMeasurement_Construct</title>
<path fill="none" stroke="#666666" d="M2037.12,-76.69C2037.12,-50.65 2037.12,-9 2037.12,-9 2037.12,-9 1154.98,-9 1154.98,-9"/>
<polygon fill="none" stroke="#666666" points="1154.98,-5.5 1144.98,-9 1154.98,-12.5 1154.98,-5.5"/>
</g>
<!-- http___example_org_ontology_teamMeasurement_teamSize -->
<g id="node18" class="node">
<title>http___example_org_ontology_teamMeasurement_teamSize</title>
<path fill="#e8f8f7" stroke="#4ecdc4" d="M2197.62,-117.5C2197.62,-117.5 2138.62,-117.5 2138.62,-117.5 2132.62,-117.5 2126.62,-111.5 2126.62,-105.5 2126.62,-105.5 2126.62,-88.75 2126.62,-88.75 2126.62,-82.75 2132.62,-76.75 2138.62,-76.75 2138.62,-76.75 2197.62,-76.75 2197.62,-76.75 2203.62,-76.75 2209.62,-82.75 2209.62,-88.75 2209.62,-88.75 2209.62,-105.5 2209.62,-105.5 2209.62,-111.5 2203.62,-117.5 2197.62,-117.5"/>
<text xml:space="preserve" text-anchor="start" x="2138.5" y="-99.2" font-family="Helvetica,sans-Serif" font-weight="bold" font-size="14.00">teamSize</text>
<text xml:space="preserve" text-anchor="start" x="2136.62" y="-85" font-family="Helvetica,sans-Serif" font-size="9.00" fill="#555555">meas:teamSize</text>
</g>
<!-- http___example_org_ontology_teamMeasurement_teamSize&#45;&gt;http___example_org_ontology_teamMeasurement_Construct -->
<g id="edge17" class="edge">
<title>http___example_org_ontology_teamMeasurement_teamSize&#45;&gt;http___example_org_ontology_teamMeasurement_Construct</title>
<path fill="none" stroke="#666666" d="M2168.12,-76.68C2168.12,-49.54 2168.12,-5 2168.12,-5 2168.12,-5 1154.79,-5 1154.79,-5"/>
<polygon fill="none" stroke="#666666" points="1154.79,-1.5 1144.79,-5 1154.79,-8.5 1154.79,-1.5"/>
</g>
</g>
</svg>
