<?xml version="1.0" encoding="UTF-8" standalone="no"?>
<!DOCTYPE svg PUBLIC "-//W3C//DTD SVG 1.1//EN"
 "http://www.w3.org/Graphics/SVG/1.1/DTD/svg11.dtd">
<!-- Generated by graphviz version 14.1.5 (20260411.2331)
 -->
<!-- Title: hierarchy_analyticTechnique Pages: 1 -->
<svg width="590pt" height="225pt"
 viewBox="0.00 0.00 590.00 225.00" xmlns="http://www.w3.org/2000/svg" xmlns:xlink="http://www.w3.org/1999/xlink">
<g id="graph0" class="graph" transform="scale(1 1) rotate(0) translate(4 221.25)">
<title>hierarchy_analyticTechnique</title>
<polygon fill="white" stroke="none" points="-4,4 -4,-221.25 586,-221.25 586,4 -4,4"/>
<text xml:space="preserve" text-anchor="middle" x="291" y="-199.95" font-family="Helvetica,sans-Serif" font-size="14.00">Analytic technique hierarchy</text>
<!-- http___example_org_ontology_teamMeasurement_analyticTechnique -->
<g id="node1" class="node">
<title>http___example_org_ontology_teamMeasurement_analyticTechnique</title>
<path fill="#e8f8f7" stroke="#4ecdc4" d="M377.75,-40.75C377.75,-40.75 264,-40.75 264,-40.75 258,-40.75 252,-34.75 252,-28.75 252,-28.75 252,-12 252,-12 252,-6 258,0 264,0 264,0 377.75,0 377.75,0 383.75,0 389.75,-6 389.75,-12 389.75,-12 389.75,-28.75 389.75,-28.75 389.75,-34.75 383.75,-40.75 377.75,-40.75"/>
<text xml:space="preserve" text-anchor="start" x="262" y="-22.45" font-family="Helvetica,sans-Serif" font-weight="bold" font-size="14.00">analyticTechnique</text>
<text xml:space="preserve" text-anchor="start" x="271.38" y="-8.25" font-family="Helvetica,sans-Serif" font-size="9.00" fill="#555555">meas:analyticTechnique</text>
</g>
<!-- http___example_org_ontology_teamMeasurement_informationTheoretic -->
<g id="node2" class="node">
<title>http___example_org_ontology_teamMeasurement_informationTheoretic</title>
<path fill="#e8f8f7" stroke="#4ecdc4" d="M143.75,-117.5C143.75,-117.5 12,-117.5 12,-117.5 6,-117.5 0,-111.5 0,-105.5 0,-105.5 0,-88.75 0,-88.75 0,-82.75 6,-76.75 12,-76.75 12,-76.75 143.75,-76.75 143.75,-76.75 149.75,-76.75 155.75,-82.75 155.75,-88.75 155.75,-88.75 155.75,-105.5 155.75,-105.5 155.75,-111.5 149.75,-117.5 143.75,-117.5"/>
<text xml:space="preserve" text-anchor="start" x="10" y="-99.2" font-family="Helvetica,sans-Serif" font-weight="bold" font-size="14.00">informationTheoretic</text>
<text xml:space="preserve" text-anchor="start" x="23.5" y="-85" font-family="Helvetica,sans-Serif" font-size="9.00" fill="#555555">meas:informationTheoretic</text>
</g>
<!-- http___example_org_ontology_teamMeasurement_informationTheoretic&#45;&gt;http___example_org_ontology_teamMeasurement_analyticTechnique -->
<g id="edge1" class="edge">
<title>http___example_org_ontology_teamMeasurement_informationTheoretic&#45;&gt;http___example_org_ontology_teamMeasurement_analyticTechnique</title>
<path fill="none" stroke="#666666" d="M77.88,-76.46C77.88,-53.61 77.88,-20 77.88,-20 77.88,-20 240.05,-20 240.05,-20"/>
<polygon fill="none" stroke="#666666" points="240.05,-23.5 250.05,-20 240.05,-16.5 240.05,-23.5"/>
</g>
<!-- http___example_org_ontology_teamMeasurement_networkAnalysis -->
<g id="node3" class="node">
<title>http___example_org_ontology_teamMeasurement_networkAnalysis</title>
<path fill="#e8f8f7" stroke="#4ecdc4" d="M293.88,-117.5C293.88,-117.5 189.88,-117.5 189.88,-117.5 183.88,-117.5 177.88,-111.5 177.88,-105.5 177.88,-105.5 177.88,-88.75 177.88,-88.75 177.88,-82.75 183.88,-76.75 189.88,-76.75 189.88,-76.75 293.88,-76.75 293.88,-76.75 299.88,-76.75 305.88,-82.75 305.88,-88.75 305.88,-88.75 305.88,-105.5 305.88,-105.5 305.88,-111.5 299.88,-117.5 293.88,-117.5"/>
<text xml:space="preserve" text-anchor="start" x="187.88" y="-99.2" font-family="Helvetica,sans-Serif" font-weight="bold" font-size="14.00">networkAnalysis</text>
<text xml:space="preserve" text-anchor="start" x="196.12" y="-85" font-family="Helvetica,sans-Serif" font-size="9.00" fill="#555555">meas:networkAnalysis</text>
</g>
<!-- http___example_org_ontology_teamMeasurement_networkAnalysis&#45;&gt;http___example_org_ontology_teamMeasurement_analyticTechnique -->
<g id="edge2" class="edge">
<title>http___example_org_ontology_teamMeasurement_networkAnalysis&#45;&gt;http___example_org_ontology_teamMeasurement_analyticTechnique</title>
<path fill="none" stroke="#666666" d="M278.94,-76.56C278.94,-76.56 278.94,-52.51 278.94,-52.51"/>
<polygon fill="none" stroke="#666666" points="282.44,-52.51 278.94,-42.51 275.44,-52.51 282.44,-52.51"/>
</g>
<!-- http___example_org_ontology_teamMeasurement_simpleAggregation -->
<g id="node4" class="node">
<title>http___example_org_ontology_teamMeasurement_simpleAggregation</title>
<path fill="#e8f8f7" stroke="#4ecdc4" d="M459.38,-117.5C459.38,-117.5 340.38,-117.5 340.38,-117.5 334.38,-117.5 328.38,-111.5 328.38,-105.5 328.38,-105.5 328.38,-88.75 328.38,-88.75 328.38,-82.75 334.38,-76.75 340.38,-76.75 340.38,-76.75 459.38,-76.75 459.38,-76.75 465.38,-76.75 471.38,-82.75 471.38,-88.75 471.38,-88.75 471.38,-105.5 471.38,-105.5 471.38,-111.5 465.38,-117.5 459.38,-117.5"/>
<text xml:space="preserve" text-anchor="start" x="338.38" y="-99.2" font-family="Helvetica,sans-Serif" font-weight="bold" font-size="14.00">simpleAggregation</text>
<text xml:space="preserve" text-anchor="start" x="348.88" y="-85" font-family="Helvetica,sans-Serif" font-size="9.00" fill="#555555">meas:simpleAggregation</text>
</g>
<!-- http___example_org_ontology_teamMeasurement_simpleAggregation&#45;&gt;http___example_org_ontology_teamMeasurement_analyticTechnique -->
<g id="edge3" class="edge">
<title>http___example_org_ontology_teamMeasurement_simpleAggregation&#45;&gt;http___example_org_ontology_teamMeasurement_analyticTechnique</title>
<path fill="none" stroke="#666666" d="M359.06,-76.56C359.06,-76.56 359.06,-52.51 359.06,-52.51"/>
<polygon fill="none" stroke="#666666" points="362.56,-52.51 359.06,-42.51 355.56,-52.51 362.56,-52.51"/>
</g>
<!-- http___example_org_ontology_teamMeasurement_synchrony -->
<g id="node5" class="node">
<title>http___example_org_ontology_teamMeasurement_synchrony</title>
<path fill="#e8f8f7" stroke="#4ecdc4" d="M570,-117.5C570,-117.5 505.75,-117.5 505.75,-117.5 499.75,-117.5 493.75,-111.5 493.75,-105.5 493.75,-105.5 493.75,-88.75 493.75,-88.75 493.75,-82.75 499.75,-76.75 505.75,-76.75 505.75,-76.75 570,-76.75 570,-76.75 576,-76.75 582,-82.75 582,-88.75 582,-88.75 582,-105.5 582,-105.5 582,-111.5 576,-117.5 570,-117.5"/>
<text xml:space="preserve" text-anchor="start" x="503.75" y="-99.2" font-family="Helvetica,sans-Serif" font-weight="bold" font-size="14.00">syncrhony</text>
<text xml:space="preserve" text-anchor="start" x="504.5" y="-85" font-family="Helvetica,sans-Serif" font-size="9.00" fill="#555555">meas:synchrony</text>
</g>
<!-- http___example_org_ontology_teamMeasurement_synchrony&#45;&gt;http___example_org_ontology_teamMeasurement_analyticTechnique -->
<g id="edge4" class="edge">
<title>http___example_org_ontology_teamMeasurement_synchrony&#45;&gt;http___example_org_ontology_teamMeasurement_analyticTechnique</title>
<path fill="none" stroke="#666666" d="M537.88,-76.46C537.88,-53.61 537.88,-20 537.88,-20 537.88,-20 401.65,-20 401.65,-20"/>
<polygon fill="none" stroke="#666666" points="401.65,-16.5 391.65,-20 401.65,-23.5 401.65,-16.5"/>
</g>
<!-- http___example_org_ontology_teamMeasurement_CRQA -->
<g id="node6" class="node">
<title>http___example_org_ontology_teamMeasurement_CRQA</title>
<path fill="#e8f8f7" stroke="#4ecdc4" d="M101.38,-194.25C101.38,-194.25 54.38,-194.25 54.38,-194.25 48.38,-194.25 42.38,-188.25 42.38,-182.25 42.38,-182.25 42.38,-165.5 42.38,-165.5 42.38,-159.5 48.38,-153.5 54.38,-153.5 54.38,-153.5 101.38,-153.5 101.38,-153.5 107.38,-153.5 113.38,-159.5 113.38,-165.5 113.38,-165.5 113.38,-182.25 113.38,-182.25 113.38,-188.25 107.38,-194.25 101.38,-194.25"/>
<text xml:space="preserve" text-anchor="start" x="57.62" y="-175.95" font-family="Helvetica,sans-Serif" font-weight="bold" font-size="14.00">CRQA</text>
<text xml:space="preserve" text-anchor="start" x="52.38" y="-161.75" font-family="Helvetica,sans-Serif" font-size="9.00" fill="#555555">meas:CRQA</text>
</g>
<!-- http___example_org_ontology_teamMeasurement_CRQA&#45;&gt;http___example_org_ontology_teamMeasurement_informationTheoretic -->
<g id="edge5" class="edge">
<title>http___example_org_ontology_teamMeasurement_CRQA&#45;&gt;http___example_org_ontology_teamMeasurement_informationTheoretic</title>
<path fill="none" stroke="#666666" d="M77.88,-153.31C77.88,-153.31 77.88,-129.26 77.88,-129.26"/>
<polygon fill="none" stroke="#666666" points="81.38,-129.26 77.88,-119.26 74.38,-129.26 81.38,-129.26"/>
</g>
</g>
</svg>
