<?xml version="1.0" encoding="UTF-8" standalone="no"?>
<!DOCTYPE svg PUBLIC "-//W3C//DTD SVG 1.1//EN"
 "http://www.w3.org/Graphics/SVG/1.1/DTD/svg11.dtd">
<!-- Generated by graphviz version 14.1.5 (20260411.2331)
 -->
<!-- Title: top_level_schema Pages: 1 -->
<svg width="803pt" height="395pt"
 viewBox="0.00 0.00 803.00 395.00" xmlns="http://www.w3.org/2000/svg" xmlns:xlink="http://www.w3.org/1999/xlink">
<g id="graph0" class="graph" transform="scale(1 1) rotate(0) translate(4 391.47)">
<title>top_level_schema</title>
<polygon fill="white" stroke="none" points="-4,4 -4,-391.47 799,-391.47 799,4 -4,4"/>
<!-- http___example_org_ontology_teamMeasurement_Measure -->
<g id="node1" class="node">
<title>http___example_org_ontology_teamMeasurement_Measure</title>
<path fill="#e8f8f7" stroke="#4ecdc4" d="M414.62,-219.47C414.62,-219.47 357.88,-219.47 357.88,-219.47 351.88,-219.47 345.88,-213.47 345.88,-207.47 345.88,-207.47 345.88,-190.72 345.88,-190.72 345.88,-184.72 351.88,-178.72 357.88,-178.72 357.88,-178.72 414.62,-178.72 414.62,-178.72 420.62,-178.72 426.62,-184.72 426.62,-190.72 426.62,-190.72 426.62,-207.47 426.62,-207.47 426.62,-213.47 420.62,-219.47 414.62,-219.47"/>
<text xml:space="preserve" text-anchor="start" x="358.5" y="-201.17" font-family="Helvetica,sans-Serif" font-weight="bold" font-size="14.00">Measure</text>
<text xml:space="preserve" text-anchor="start" x="355.88" y="-186.97" font-family="Helvetica,sans-Serif" font-size="9.00" fill="#555555">meas:Measure</text>
</g>
<!-- http___example_org_ontology_teamMeasurement_Construct -->
<g id="node3" class="node">
<title>http___example_org_ontology_teamMeasurement_Construct</title>
<path fill="#e8f8f7" stroke="#4ecdc4" d="M756,-47.47C756,-47.47 696.25,-47.47 696.25,-47.47 690.25,-47.47 684.25,-41.47 684.25,-35.47 684.25,-35.47 684.25,-18.72 684.25,-18.72 684.25,-12.72 690.25,-6.72 696.25,-6.72 696.25,-6.72 756,-6.72 756,-6.72 762,-6.72 768,-12.72 768,-18.72 768,-18.72 768,-35.47 768,-35.47 768,-41.47 762,-47.47 756,-47.47"/>
<text xml:space="preserve" text-anchor="start" x="694.25" y="-29.17" font-family="Helvetica,sans-Serif" font-weight="bold" font-size="14.00">Construct</text>
<text xml:space="preserve" text-anchor="start" x="694.25" y="-14.97" font-family="Helvetica,sans-Serif" font-size="9.00" fill="#555555">meas:Construct</text>
</g>
<!-- http___example_org_ontology_teamMeasurement_Measure&#45;&gt;http___example_org_ontology_teamMeasurement_Construct -->
<g id="edge4" class="edge">
<title>http___example_org_ontology_teamMeasurement_Measure&#45;&gt;http___example_org_ontology_teamMeasurement_Construct</title>
<path fill="none" stroke="#333333" d="M419.84,-178.28C446.05,-161.88 484.06,-138.85 518.5,-120.84 570.42,-93.7 631.76,-66.45 674.04,-48.38"/>
<polygon fill="#333333" stroke="#333333" points="682.98,-44.58 675.54,-52.63 679.5,-46.06 673.78,-48.49 673.78,-48.49 673.78,-48.49 679.5,-46.06 672.01,-44.35 682.98,-44.58"/>
<text xml:space="preserve" text-anchor="middle" x="569.88" y="-122.59" font-family="Helvetica,sans-Serif" font-size="10.00">measures construct</text>
</g>
<!-- http___example_org_ontology_teamMeasurement_Modality -->
<g id="node4" class="node">
<title>http___example_org_ontology_teamMeasurement_Modality</title>
<path fill="#e8f8f7" stroke="#4ecdc4" d="M753.75,-219.47C753.75,-219.47 698.5,-219.47 698.5,-219.47 692.5,-219.47 686.5,-213.47 686.5,-207.47 686.5,-207.47 686.5,-190.72 686.5,-190.72 686.5,-184.72 692.5,-178.72 698.5,-178.72 698.5,-178.72 753.75,-178.72 753.75,-178.72 759.75,-178.72 765.75,-184.72 765.75,-190.72 765.75,-190.72 765.75,-207.47 765.75,-207.47 765.75,-213.47 759.75,-219.47 753.75,-219.47"/>
<text xml:space="preserve" text-anchor="start" x="698.38" y="-201.17" font-family="Helvetica,sans-Serif" font-weight="bold" font-size="14.00">Modality</text>
<text xml:space="preserve" text-anchor="start" x="696.5" y="-186.97" font-family="Helvetica,sans-Serif" font-size="9.00" fill="#555555">meas:Modality</text>
</g>
<!-- http___example_org_ontology_teamMeasurement_Measure&#45;&gt;http___example_org_ontology_teamMeasurement_Modality -->
<g id="edge3" class="edge">
<title>http___example_org_ontology_teamMeasurement_Measure&#45;&gt;http___example_org_ontology_teamMeasurement_Modality</title>
<path fill="none" stroke="#333333" d="M427,-199.09C488.68,-199.09 607.33,-199.09 674.86,-199.09"/>
<polygon fill="#333333" stroke="#333333" points="684.83,-199.09 674.83,-203.59 681.05,-199.09 674.83,-199.09 674.83,-199.09 674.83,-199.09 681.05,-199.09 674.83,-194.59 684.83,-199.09"/>
<text xml:space="preserve" text-anchor="middle" x="569.88" y="-200.84" font-family="Helvetica,sans-Serif" font-size="10.00">includes modality</text>
</g>
<!-- http___example_org_ontology_teamMeasurement_Method -->
<g id="node5" class="node">
<title>http___example_org_ontology_teamMeasurement_Method</title>
<path fill="#e8f8f7" stroke="#4ecdc4" d="M751.88,-135.47C751.88,-135.47 700.38,-135.47 700.38,-135.47 694.38,-135.47 688.38,-129.47 688.38,-123.47 688.38,-123.47 688.38,-106.72 688.38,-106.72 688.38,-100.72 694.38,-94.72 700.38,-94.72 700.38,-94.72 751.88,-94.72 751.88,-94.72 757.88,-94.72 763.88,-100.72 763.88,-106.72 763.88,-106.72 763.88,-123.47 763.88,-123.47 763.88,-129.47 757.88,-135.47 751.88,-135.47"/>
<text xml:space="preserve" text-anchor="start" x="701.75" y="-117.17" font-family="Helvetica,sans-Serif" font-weight="bold" font-size="14.00">Method</text>
<text xml:space="preserve" text-anchor="start" x="698.38" y="-102.97" font-family="Helvetica,sans-Serif" font-size="9.00" fill="#555555">meas:Method</text>
</g>
<!-- http___example_org_ontology_teamMeasurement_Measure&#45;&gt;http___example_org_ontology_teamMeasurement_Method -->
<g id="edge2" class="edge">
<title>http___example_org_ontology_teamMeasurement_Measure&#45;&gt;http___example_org_ontology_teamMeasurement_Method</title>
<path fill="none" stroke="#333333" d="M427,-189.21C489.46,-173.68 610.37,-143.62 677.42,-126.95"/>
<polygon fill="#333333" stroke="#333333" points="686.92,-124.59 678.3,-131.37 683.25,-125.5 677.22,-127 677.22,-127 677.22,-127 683.25,-125.5 676.13,-122.64 686.92,-124.59"/>
<text xml:space="preserve" text-anchor="middle" x="569.88" y="-166.37" font-family="Helvetica,sans-Serif" font-size="10.00">uses method</text>
</g>
<!-- http___example_org_ontology_teamMeasurement_analyticTechnique -->
<g id="node6" class="node">
<title>http___example_org_ontology_teamMeasurement_analyticTechnique</title>
<path fill="#e8f8f7" stroke="#4ecdc4" d="M783,-387.47C783,-387.47 669.25,-387.47 669.25,-387.47 663.25,-387.47 657.25,-381.47 657.25,-375.47 657.25,-375.47 657.25,-358.72 657.25,-358.72 657.25,-352.72 663.25,-346.72 669.25,-346.72 669.25,-346.72 783,-346.72 783,-346.72 789,-346.72 795,-352.72 795,-358.72 795,-358.72 795,-375.47 795,-375.47 795,-381.47 789,-387.47 783,-387.47"/>
<text xml:space="preserve" text-anchor="start" x="667.25" y="-369.17" font-family="Helvetica,sans-Serif" font-weight="bold" font-size="14.00">analyticTechnique</text>
<text xml:space="preserve" text-anchor="start" x="676.62" y="-354.97" font-family="Helvetica,sans-Serif" font-size="9.00" fill="#555555">meas:analyticTechnique</text>
</g>
<!-- http___example_org_ontology_teamMeasurement_Measure&#45;&gt;http___example_org_ontology_teamMeasurement_analyticTechnique -->
<g id="edge6" class="edge">
<title>http___example_org_ontology_teamMeasurement_Measure&#45;&gt;http___example_org_ontology_teamMeasurement_analyticTechnique</title>
<path fill="none" stroke="#333333" d="M419.51,-219.81C445.69,-236.24 483.82,-259.33 518.5,-277.09 565.69,-301.27 620.82,-325.07 662.26,-342.12"/>
<polygon fill="#333333" stroke="#333333" points="671.36,-345.84 660.4,-346.22 667.86,-344.41 662.1,-342.06 662.1,-342.06 662.1,-342.06 667.86,-344.41 663.81,-337.89 671.36,-345.84"/>
<text xml:space="preserve" text-anchor="middle" x="569.88" y="-325.64" font-family="Helvetica,sans-Serif" font-size="10.00">uses analytic technique</text>
</g>
<!-- http___example_org_ontology_teamMeasurement_levelOfAnalysis -->
<g id="node7" class="node">
<title>http___example_org_ontology_teamMeasurement_levelOfAnalysis</title>
<path fill="#e8f8f7" stroke="#4ecdc4" d="M774.75,-303.47C774.75,-303.47 677.5,-303.47 677.5,-303.47 671.5,-303.47 665.5,-297.47 665.5,-291.47 665.5,-291.47 665.5,-274.72 665.5,-274.72 665.5,-268.72 671.5,-262.72 677.5,-262.72 677.5,-262.72 774.75,-262.72 774.75,-262.72 780.75,-262.72 786.75,-268.72 786.75,-274.72 786.75,-274.72 786.75,-291.47 786.75,-291.47 786.75,-297.47 780.75,-303.47 774.75,-303.47"/>
<text xml:space="preserve" text-anchor="start" x="675.5" y="-285.17" font-family="Helvetica,sans-Serif" font-weight="bold" font-size="14.00">levelOfAnalysis</text>
<text xml:space="preserve" text-anchor="start" x="682.25" y="-270.97" font-family="Helvetica,sans-Serif" font-size="9.00" fill="#555555">meas:levelOfAnalysis</text>
</g>
<!-- http___example_org_ontology_teamMeasurement_Measure&#45;&gt;http___example_org_ontology_teamMeasurement_levelOfAnalysis -->
<g id="edge5" class="edge">
<title>http___example_org_ontology_teamMeasurement_Measure&#45;&gt;http___example_org_ontology_teamMeasurement_levelOfAnalysis</title>
<path fill="none" stroke="#333333" d="M427,-208.98C482.8,-222.85 585.25,-248.32 654.27,-265.48"/>
<polygon fill="#333333" stroke="#333333" points="663.87,-267.86 653.08,-269.82 660.2,-266.95 654.17,-265.45 654.17,-265.45 654.17,-265.45 660.2,-266.95 655.25,-261.09 663.87,-267.86"/>
<text xml:space="preserve" text-anchor="middle" x="569.88" y="-257.67" font-family="Helvetica,sans-Serif" font-size="10.00">has level of analysis</text>
</g>
<!-- http___example_org_ontology_teamMeasurement_Manipulation -->
<g id="node2" class="node">
<title>http___example_org_ontology_teamMeasurement_Manipulation</title>
<path fill="#e8f8f7" stroke="#4ecdc4" d="M470.5,-42.47C470.5,-42.47 302,-42.47 302,-42.47 296,-42.47 290,-36.47 290,-30.47 290,-30.47 290,-13.72 290,-13.72 290,-7.72 296,-1.72 302,-1.72 302,-1.72 470.5,-1.72 470.5,-1.72 476.5,-1.72 482.5,-7.72 482.5,-13.72 482.5,-13.72 482.5,-30.47 482.5,-30.47 482.5,-36.47 476.5,-42.47 470.5,-42.47"/>
<text xml:space="preserve" text-anchor="start" x="300" y="-24.17" font-family="Helvetica,sans-Serif" font-weight="bold" font-size="14.00">experimental manipulation</text>
<text xml:space="preserve" text-anchor="start" x="347.25" y="-9.97" font-family="Helvetica,sans-Serif" font-size="9.00" fill="#555555">meas:Manipulation</text>
</g>
<!-- http___example_org_ontology_teamMeasurement_Manipulation&#45;&gt;http___example_org_ontology_teamMeasurement_Construct -->
<g id="edge1" class="edge">
<title>http___example_org_ontology_teamMeasurement_Manipulation&#45;&gt;http___example_org_ontology_teamMeasurement_Construct</title>
<path fill="none" stroke="#333333" d="M482.9,-20.05C525.3,-19.55 575.77,-19.48 621.25,-20.84 638.12,-21.35 656.52,-22.32 673.07,-23.35"/>
<polygon fill="#333333" stroke="#333333" points="682.99,-23.98 672.72,-27.83 679.21,-23.74 673.01,-23.34 673.01,-23.34 673.01,-23.34 679.21,-23.74 673.3,-18.85 682.99,-23.98"/>
<text xml:space="preserve" text-anchor="middle" x="569.88" y="-22.59" font-family="Helvetica,sans-Serif" font-size="10.00">manipulates construct</text>
</g>
<!-- http___example_org_ontology_evidence_Publication -->
<g id="node8" class="node">
<title>http___example_org_ontology_evidence_Publication</title>
<path fill="#e3f2f8" stroke="#45b7d1" d="M89.38,-249.47C89.38,-249.47 20.63,-249.47 20.63,-249.47 14.63,-249.47 8.62,-243.47 8.62,-237.47 8.62,-237.47 8.62,-220.72 8.62,-220.72 8.62,-214.72 14.62,-208.72 20.62,-208.72 20.62,-208.72 89.38,-208.72 89.38,-208.72 95.38,-208.72 101.38,-214.72 101.38,-220.72 101.38,-220.72 101.38,-237.47 101.38,-237.47 101.38,-243.47 95.38,-249.47 89.38,-249.47"/>
<text xml:space="preserve" text-anchor="start" x="18.62" y="-231.17" font-family="Helvetica,sans-Serif" font-weight="bold" font-size="14.00">Publication</text>
<text xml:space="preserve" text-anchor="start" x="22.38" y="-216.97" font-family="Helvetica,sans-Serif" font-size="9.00" fill="#555555">evid:Publication</text>
</g>
<!-- http___example_org_ontology_evidence_EffectSize -->
<g id="node9" class="node">
<title>http___example_org_ontology_evidence_EffectSize</title>
<path fill="#e3f2f8" stroke="#45b7d1" d="M85.25,-160.47C85.25,-160.47 24.75,-160.47 24.75,-160.47 18.75,-160.47 12.75,-154.47 12.75,-148.47 12.75,-148.47 12.75,-131.72 12.75,-131.72 12.75,-125.72 18.75,-119.72 24.75,-119.72 24.75,-119.72 85.25,-119.72 85.25,-119.72 91.25,-119.72 97.25,-125.72 97.25,-131.72 97.25,-131.72 97.25,-148.47 97.25,-148.47 97.25,-154.47 91.25,-160.47 85.25,-160.47"/>
<text xml:space="preserve" text-anchor="start" x="22.75" y="-142.17" font-family="Helvetica,sans-Serif" font-weight="bold" font-size="14.00">EffectSize</text>
<text xml:space="preserve" text-anchor="start" x="25" y="-127.97" font-family="Helvetica,sans-Serif" font-size="9.00" fill="#555555">evid:EffectSize</text>
</g>
<!-- http___example_org_ontology_evidence_EffectSize&#45;&gt;http___example_org_ontology_teamMeasurement_Measure -->
<g id="edge8" class="edge">
<title>http___example_org_ontology_evidence_EffectSize&#45;&gt;http___example_org_ontology_teamMeasurement_Measure</title>
<path fill="none" stroke="#333333" d="M97.51,-134.59C137.95,-130.44 200.94,-127.25 254,-138.84 284.46,-145.5 316.3,-159.91 340.99,-172.97"/>
<polygon fill="#333333" stroke="#333333" points="349.7,-177.68 338.76,-176.88 346.37,-175.88 340.91,-172.92 340.91,-172.92 340.91,-172.92 346.37,-175.88 343.05,-168.96 349.7,-177.68"/>
<text xml:space="preserve" text-anchor="middle" x="200" y="-140.59" font-family="Helvetica,sans-Serif" font-size="10.00">has dependent variable</text>
</g>
<!-- http___example_org_ontology_evidence_EffectSize&#45;&gt;http___example_org_ontology_teamMeasurement_Measure -->
<g id="edge9" class="edge">
<title>http___example_org_ontology_evidence_EffectSize&#45;&gt;http___example_org_ontology_teamMeasurement_Measure</title>
<path fill="none" stroke="#333333" d="M80.41,-160.71C104.37,-180.72 138.39,-208.45 146,-211.09 208.28,-232.7 285.16,-222.95 334.68,-212.39"/>
<polygon fill="#333333" stroke="#333333" points="344.24,-210.26 335.46,-216.83 340.55,-211.08 334.48,-212.44 334.48,-212.44 334.48,-212.44 340.55,-211.08 333.5,-208.04 344.24,-210.26"/>
<text xml:space="preserve" text-anchor="middle" x="200" y="-225.75" font-family="Helvetica,sans-Serif" font-size="10.00">has independent variable</text>
</g>
<!-- http___example_org_ontology_evidence_EffectSize&#45;&gt;http___example_org_ontology_teamMeasurement_Measure -->
<g id="edge11" class="edge">
<title>http___example_org_ontology_evidence_EffectSize&#45;&gt;http___example_org_ontology_teamMeasurement_Measure</title>
<path fill="none" stroke="#333333" d="M97.7,-147.57C158.06,-158.38 269.64,-178.38 334.64,-190.02"/>
<polygon fill="#333333" stroke="#333333" points="344.23,-191.74 333.59,-194.41 340.51,-191.08 334.39,-189.98 334.39,-189.98 334.39,-189.98 340.51,-191.08 335.18,-185.55 344.23,-191.74"/>
<text xml:space="preserve" text-anchor="middle" x="200" y="-176.63" font-family="Helvetica,sans-Serif" font-size="10.00">has independent variable</text>
</g>
<!-- http___example_org_ontology_evidence_EffectSize&#45;&gt;http___example_org_ontology_teamMeasurement_Manipulation -->
<g id="edge10" class="edge">
<title>http___example_org_ontology_evidence_EffectSize&#45;&gt;http___example_org_ontology_teamMeasurement_Manipulation</title>
<path fill="none" stroke="#333333" d="M64.46,-119.36C77.31,-91.04 104.67,-41.43 146,-20.84 186.27,-0.78 235.3,2.08 278.46,-1.3"/>
<polygon fill="#333333" stroke="#333333" points="288.38,-2.2 278.01,-5.78 284.61,-1.86 278.42,-1.29 278.42,-1.29 278.42,-1.29 284.61,-1.86 278.83,3.19 288.38,-2.2"/>
<text xml:space="preserve" text-anchor="middle" x="200" y="-22.59" font-family="Helvetica,sans-Serif" font-size="10.00">has independent variable</text>
</g>
<!-- http___example_org_ontology_evidence_EffectSize&#45;&gt;http___example_org_ontology_teamMeasurement_Manipulation -->
<g id="edge12" class="edge">
<title>http___example_org_ontology_evidence_EffectSize&#45;&gt;http___example_org_ontology_teamMeasurement_Manipulation</title>
<path fill="none" stroke="#333333" d="M97.7,-125.15C152.89,-105.37 250.9,-70.24 316.97,-46.57"/>
<polygon fill="#333333" stroke="#333333" points="326.14,-43.28 318.24,-50.89 322.58,-44.55 316.73,-46.65 316.73,-46.65 316.73,-46.65 322.58,-44.55 315.21,-42.42 326.14,-43.28"/>
<text xml:space="preserve" text-anchor="middle" x="200" y="-106.98" font-family="Helvetica,sans-Serif" font-size="10.00">has independent variable</text>
</g>
<!-- http___example_org_ontology_evidence_primaryStudy -->
<g id="node10" class="node">
<title>http___example_org_ontology_evidence_primaryStudy</title>
<path fill="#e3f2f8" stroke="#45b7d1" d="M429.25,-337.47C429.25,-337.47 343.25,-337.47 343.25,-337.47 337.25,-337.47 331.25,-331.47 331.25,-325.47 331.25,-325.47 331.25,-308.72 331.25,-308.72 331.25,-302.72 337.25,-296.72 343.25,-296.72 343.25,-296.72 429.25,-296.72 429.25,-296.72 435.25,-296.72 441.25,-302.72 441.25,-308.72 441.25,-308.72 441.25,-325.47 441.25,-325.47 441.25,-331.47 435.25,-337.47 429.25,-337.47"/>
<text xml:space="preserve" text-anchor="start" x="341.25" y="-319.17" font-family="Helvetica,sans-Serif" font-weight="bold" font-size="14.00">primary study</text>
<text xml:space="preserve" text-anchor="start" x="349.5" y="-304.97" font-family="Helvetica,sans-Serif" font-size="9.00" fill="#555555">evid:primaryStudy</text>
</g>
<!-- http___example_org_ontology_evidence_metaAnalysis -->
<g id="node11" class="node">
<title>http___example_org_ontology_evidence_metaAnalysis</title>
<path fill="#e3f2f8" stroke="#45b7d1" d="M98,-337.47C98,-337.47 12,-337.47 12,-337.47 6,-337.47 0,-331.47 0,-325.47 0,-325.47 0,-308.72 0,-308.72 0,-302.72 6,-296.72 12,-296.72 12,-296.72 98,-296.72 98,-296.72 104,-296.72 110,-302.72 110,-308.72 110,-308.72 110,-325.47 110,-325.47 110,-331.47 104,-337.47 98,-337.47"/>
<text xml:space="preserve" text-anchor="start" x="10" y="-319.17" font-family="Helvetica,sans-Serif" font-weight="bold" font-size="14.00">meta&#45;analysis</text>
<text xml:space="preserve" text-anchor="start" x="17.88" y="-304.97" font-family="Helvetica,sans-Serif" font-size="9.00" fill="#555555">evid:metaAnalysis</text>
</g>
<!-- http___example_org_ontology_evidence_metaAnalysis&#45;&gt;http___example_org_ontology_evidence_primaryStudy -->
<g id="edge7" class="edge">
<title>http___example_org_ontology_evidence_metaAnalysis&#45;&gt;http___example_org_ontology_evidence_primaryStudy</title>
<path fill="none" stroke="#333333" d="M110.37,-317.09C167.8,-317.09 258.36,-317.09 319.7,-317.09"/>
<polygon fill="#333333" stroke="#333333" points="329.58,-317.09 319.58,-321.59 325.8,-317.09 319.58,-317.09 319.58,-317.09 319.58,-317.09 325.8,-317.09 319.58,-312.59 329.58,-317.09"/>
<text xml:space="preserve" text-anchor="middle" x="200" y="-318.84" font-family="Helvetica,sans-Serif" font-size="10.00">aggregates findings from</text>
</g>
</g>
</svg>
